<?xml version="1.0" standalone="no"?>
<!DOCTYPE svg PUBLIC "-//W3C//DTD SVG 20010904//EN"
 "http://www.w3.org/TR/2001/REC-SVG-20010904/DTD/svg10.dtd">
<svg version="1.0" xmlns="http://www.w3.org/2000/svg"
 width="400.000000pt" height="400.000000pt" viewBox="0 0 400.000000 400.000000"
 preserveAspectRatio="xMidYMid meet">
<metadata>
Created by potrace 1.11, written by Peter Selinger 2001-2013
</metadata>
<g transform="translate(0.000000,400.000000) scale(0.100000,-0.100000)"
fill="#000000" stroke="none">
<path d="M1479 3982 c-14 -15 -52 -45 -82 -63 -5 -4 -7 -15 -3 -24 4 -12 -3
-24 -21 -38 -23 -18 -38 -21 -97 -18 -86 4 -108 14 -104 46 4 29 -1 30 -56 14
-27 -8 -50 -23 -62 -40 -16 -25 -19 -26 -30 -11 -8 10 -11 37 -8 67 3 38 2 45
-5 28 -6 -12 -23 -26 -38 -29 -15 -4 -34 -16 -43 -27 -13 -15 -23 -17 -54 -12
-20 4 -40 14 -43 21 -6 17 -43 18 -78 2 -22 -10 -28 -8 -48 10 -27 26 -52 29
-43 6 9 -24 -12 -56 -33 -49 -9 3 -26 -2 -37 -10 -10 -8 -34 -15 -51 -15 -26
0 -33 -4 -33 -19 0 -22 -49 -63 -94 -80 -19 -8 -26 -16 -22 -27 3 -8 -1 -17
-8 -20 -22 -8 -32 -50 -35 -144 -2 -84 -1 -92 20 -97 14 -4 18 -11 14 -22 -4
-9 -10 -35 -14 -58 -10 -50 -26 -73 -52 -73 -22 0 -25 -23 -6 -37 6 -6 33 -16
60 -23 39 -10 47 -16 47 -36 0 -21 -5 -24 -34 -24 -21 0 -36 -6 -40 -16 -3 -8
-11 -12 -17 -8 -8 5 -8 9 1 14 7 4 9 16 5 29 -4 15 -15 21 -35 21 -16 0 -32 5
-35 10 -11 17 -103 5 -135 -18 -9 -6 25 -22 48 -22 15 0 22 -5 19 -12 -2 -8
-15 -12 -30 -10 -19 2 -27 -1 -27 -12 0 -9 -8 -16 -19 -16 -10 0 -24 -7 -32
-16 -8 -10 -22 -14 -38 -11 -47 9 -51 1 -51 -94 l0 -89 28 12 c15 7 34 18 42
24 10 9 21 10 30 4 19 -12 60 -13 60 -2 0 5 11 14 25 20 27 12 75 1 75 -18 0
-23 -47 -80 -82 -100 -37 -21 -53 -50 -46 -84 2 -14 -6 -18 -46 -22 -26 -2
-57 1 -67 7 -18 9 -19 2 -19 -233 0 -180 3 -239 11 -231 15 15 49 -5 42 -24
-3 -7 2 -13 10 -13 8 0 17 -6 20 -14 5 -12 -2 -13 -30 -9 -24 4 -38 2 -43 -8
-12 -18 -3 -29 25 -29 13 0 36 -5 50 -12 21 -9 25 -17 20 -35 -4 -18 -1 -23
15 -23 27 0 70 -28 70 -46 0 -8 6 -14 13 -14 6 0 -3 -8 -21 -17 -18 -9 -29
-19 -25 -24 15 -14 61 -21 67 -10 4 6 16 11 27 11 11 0 22 7 25 15 4 8 17 15
31 15 34 0 120 -29 134 -46 6 -8 26 -14 44 -14 29 0 32 3 32 30 0 17 -4 30 -9
30 -21 0 -3 22 42 52 29 19 49 39 47 48 -2 12 9 15 55 13 62 -2 103 -18 92
-35 -5 -8 -1 -9 10 -5 10 4 24 7 32 7 9 0 14 11 14 35 0 23 -5 35 -14 35 -9 0
-17 15 -21 40 -6 37 -16 46 -47 41 -4 0 -12 8 -18 19 -8 15 -6 23 12 40 12 11
25 20 30 20 4 0 17 9 28 20 15 15 33 20 74 20 46 0 59 4 86 30 38 35 93 52
164 50 96 -3 104 -1 112 23 3 12 22 37 42 55 31 28 37 31 51 18 9 -7 26 -17
38 -20 18 -6 21 -11 14 -24 -5 -9 -9 -20 -10 -24 -1 -5 -1 -9 -2 -10 -11 -36
-18 -149 -9 -143 3 2 6 -25 6 -58 1 -53 9 -112 14 -112 1 0 3 -10 4 -22 2 -13
-3 -23 -10 -23 -30 0 -31 -55 -3 -135 24 -70 39 -90 40 -54 0 19 3 16 15 -16
8 -21 23 -48 33 -60 10 -11 20 -25 22 -32 3 -9 9 -9 19 -3 10 7 11 13 5 18 -6
4 -11 25 -12 47 -4 190 -2 250 10 315 8 41 15 82 15 90 0 19 7 49 26 114 15
50 20 210 7 202 -4 -3 -7 4 -7 14 0 10 5 16 10 13 5 -4 7 1 3 10 -12 31 84
137 125 137 10 0 33 8 51 17 18 9 37 16 43 15 6 -1 17 5 24 13 16 19 49 19 56
0 7 -18 84 -21 84 -3 0 6 3 9 6 6 3 -4 21 0 40 8 19 8 34 11 34 8 0 -4 8 0 18
7 9 7 14 9 9 4 -4 -4 10 -14 30 -22 34 -11 39 -11 51 5 7 9 15 27 19 40 3 12
9 22 14 22 14 0 63 -32 72 -48 5 -7 34 -40 66 -73 38 -40 66 -61 84 -63 24 -2
67 -35 67 -51 0 -12 79 -112 134 -169 31 -33 54 -61 51 -64 -2 -3 -19 3 -38
11 -18 9 -59 19 -91 21 -32 3 -61 8 -65 10 -3 2 -36 1 -71 -3 -36 -5 -67 -5
-70 -2 -8 11 -60 12 -60 1 0 -6 -7 -10 -15 -10 -8 0 -15 -4 -15 -10 0 -5 -7
-10 -15 -10 -8 0 -15 8 -15 18 0 9 -4 13 -8 7 -4 -5 -17 -16 -29 -23 -20 -11
-23 -10 -23 5 0 13 -9 19 -34 20 -19 2 -38 -2 -41 -8 -4 -6 -11 -6 -18 -1 -7
5 -22 12 -34 14 -17 5 -20 2 -15 -11 5 -14 4 -14 -11 -2 -9 7 -17 9 -17 4 0
-6 -14 -9 -32 -7 -17 2 -38 -2 -46 -9 -13 -10 -14 -9 -7 3 7 11 2 10 -19 -4
-17 -11 -25 -13 -20 -5 6 12 5 12 -8 1 -12 -10 -17 -10 -20 -1 -3 8 -9 7 -20
-5 -19 -18 -43 -22 -32 -4 4 7 3 8 -5 4 -6 -4 -9 -12 -6 -17 4 -5 -1 -9 -10
-9 -24 0 -88 -69 -81 -86 3 -8 2 -12 -3 -9 -5 3 -9 -15 -8 -41 1 -25 6 -48 13
-51 6 -2 29 5 50 16 54 29 63 26 24 -9 -18 -16 -38 -30 -43 -30 -4 0 -15 -7
-23 -15 -13 -12 -13 -16 -2 -20 11 -4 65 -11 102 -14 5 -1 6 -4 2 -8 -10 -11
125 -42 159 -36 45 7 108 32 129 51 21 19 55 82 59 111 2 10 8 26 15 33 6 8 9
17 6 21 -11 10 17 49 32 43 8 -3 14 1 14 8 0 25 24 23 46 -3 27 -32 57 -133
55 -185 -1 -43 21 -86 44 -86 19 0 19 4 -1 41 -8 17 -14 32 -12 34 2 2 28 -12
58 -31 68 -43 107 -54 191 -54 65 0 138 -19 172 -44 14 -11 16 -22 11 -54 -6
-39 -8 -41 -56 -51 -27 -6 -79 -11 -117 -11 -67 0 -67 0 -134 55 -71 59 -80
61 -46 14 l20 -29 -22 3 c-12 2 -27 11 -34 20 -11 15 -15 15 -51 -2 -21 -10
-68 -22 -104 -25 -36 -4 -87 -12 -115 -20 -27 -7 -57 -15 -65 -17 -11 -3 -16
6 -18 29 -2 17 -5 32 -8 32 -5 0 -56 -32 -64 -40 -18 -18 -135 -60 -183 -65
-65 -6 -143 -39 -160 -67 -7 -10 -18 -18 -26 -18 -12 0 -12 -3 -3 -12 15 -15
16 -68 1 -68 -5 0 -7 -5 -3 -12 4 -6 -1 -17 -10 -24 -15 -10 -16 -16 -5 -36
11 -21 11 -22 -5 -9 -11 10 -15 22 -11 38 3 13 1 23 -4 23 -17 0 -20 -15 -11
-56 5 -21 11 -57 15 -79 3 -22 19 -69 35 -104 17 -35 24 -59 18 -53 -17 13
-50 18 -65 9 -6 -4 -39 -9 -72 -12 -40 -2 -72 -11 -90 -25 -36 -25 -44 -25
-36 0 3 11 4 20 1 20 -13 0 -56 -24 -56 -32 0 -4 -5 -8 -12 -8 -6 0 -32 -10
-56 -21 -37 -18 -46 -19 -53 -8 -7 11 -9 10 -10 -6 -1 -11 -1 -25 0 -32 1 -6
-3 -15 -9 -18 -14 -8 -170 4 -170 14 0 3 15 14 32 22 90 44 89 44 97 30 6 -10
10 -9 14 3 4 9 18 16 33 16 14 0 42 7 61 17 l35 16 -29 12 c-15 7 -29 9 -31 6
-1 -4 -21 -5 -45 -4 l-42 2 39 -8 c21 -5 48 -6 60 -4 12 2 5 -3 -14 -12 -39
-18 -116 -17 -113 2 2 8 -31 12 -117 12 -116 1 -212 -13 -259 -38 -24 -14 -19
-31 9 -31 32 0 13 -26 -33 -46 -23 -10 -48 -24 -55 -31 -15 -15 -25 -16 -222
-19 -80 -2 -154 -4 -165 -5 -29 -3 -77 9 -84 20 -7 10 -55 31 -72 31 -6 0 -9
-45 -7 -112 l3 -112 76 0 c41 1 80 4 86 7 14 9 74 -3 68 -13 -3 -5 4 -6 15 -3
11 3 18 8 15 12 -8 15 66 32 162 37 54 3 109 7 123 9 14 2 31 4 39 4 8 1 12 9
9 24 -4 22 -3 22 104 20 59 -1 112 -4 118 -8 6 -3 26 -1 45 7 28 10 40 10 55
0 24 -15 60 -15 97 -1 15 5 55 10 88 11 33 0 89 6 125 13 64 14 79 16 235 34
44 5 100 13 124 17 l44 7 -5 -93 c-2 -51 -1 -85 2 -74 4 10 10 -19 14 -66 8
-102 46 -295 80 -410 20 -69 32 -91 60 -116 20 -17 36 -34 36 -38 0 -11 -35
-7 -48 6 -9 9 -12 8 -12 -8 0 -11 5 -25 12 -32 9 -9 7 -12 -9 -12 -12 0 -23
-6 -26 -12 -3 -10 -8 -10 -21 1 -14 12 -16 12 -10 -4 6 -15 4 -16 -15 -6 -12
7 -18 17 -15 23 4 7 3 8 -4 4 -6 -4 -8 -14 -5 -23 5 -13 2 -15 -15 -11 -12 4
-22 2 -22 -3 0 -5 -5 -9 -11 -9 -5 0 -7 4 -4 10 3 5 -3 20 -14 32 -12 12 -21
17 -21 10 0 -6 5 -14 10 -17 6 -3 10 -11 10 -16 0 -6 -16 2 -35 17 -35 27 -48
25 -20 -3 8 -8 13 -19 10 -24 -4 -5 0 -6 8 -4 7 3 22 -3 32 -15 10 -11 24 -20
32 -20 7 0 13 -5 13 -11 0 -6 -6 -9 -14 -6 -8 3 -17 -1 -20 -9 -7 -19 18 -18
34 1 10 12 16 13 27 3 13 -10 11 -13 -8 -20 -12 -5 -19 -11 -16 -15 4 -3 21 0
38 7 29 12 33 12 49 -10 11 -14 19 -18 21 -11 3 8 12 9 23 5 19 -7 19 -8 0
-16 -15 -7 -13 -7 9 -5 15 3 27 1 27 -4 0 -14 -25 -16 -62 -3 -20 7 -39 10
-42 7 -3 -4 -6 -1 -6 4 0 6 6 14 13 16 6 3 2 6 -11 6 -13 1 -20 -3 -17 -9 3
-5 -1 -10 -9 -10 -9 0 -16 -5 -16 -11 0 -5 4 -8 9 -4 20 11 20 -13 0 -31 -11
-10 -17 -24 -14 -33 3 -8 3 -12 -1 -8 -4 4 -18 0 -30 -8 -14 -9 -25 -11 -29
-5 -11 17 -23 11 -29 -15 -5 -18 -15 -27 -36 -32 -17 -3 -30 -9 -30 -14 0 -16
29 -9 55 12 24 22 81 33 90 19 3 -5 -4 -11 -15 -15 -11 -3 -20 -11 -20 -16 0
-6 -4 -8 -10 -4 -5 3 -7 -8 -5 -26 3 -24 1 -29 -8 -20 -6 6 -18 11 -26 10 -11
0 -12 -2 -3 -6 6 -2 10 -8 8 -12 -3 -4 7 -7 22 -6 18 0 26 6 24 15 -2 11 1 10
11 -2 8 -10 17 -15 20 -11 4 3 7 1 7 -5 0 -7 -4 -12 -10 -12 -5 0 -10 -5 -10
-11 0 -5 4 -8 9 -5 14 9 42 -5 34 -17 -3 -6 -1 -7 5 -3 6 4 8 14 5 24 -6 15
-5 15 10 3 15 -12 17 -12 11 3 -3 9 -10 16 -16 16 -5 0 -6 4 -3 10 9 14 35 12
32 -2 -1 -9 12 -13 42 -13 28 0 45 5 47 13 1 7 0 8 -3 2 -3 -7 -10 -7 -21 2
-12 10 -14 10 -8 1 5 -9 2 -11 -7 -7 -12 4 -9 11 10 30 20 20 38 27 87 30 116
9 132 13 98 22 -21 7 -21 8 -5 18 13 8 26 8 43 1 19 -7 21 -11 10 -15 -8 -3
-22 -14 -31 -24 -12 -12 -29 -18 -55 -17 -72 3 -105 -1 -99 -11 3 -5 20 -8 37
-6 18 2 38 2 45 -1 14 -5 18 -24 6 -22 -20 3 -21 -3 -6 -21 20 -23 36 -25 52
-6 9 11 6 12 -14 8 -15 -2 -25 0 -25 7 0 6 12 11 26 11 14 0 23 4 20 8 -3 5 1
9 8 9 8 0 11 -8 8 -19 -5 -20 8 -24 26 -6 8 8 15 8 28 -3 16 -12 17 -12 11 4
-3 9 -3 17 1 18 4 0 18 3 32 5 24 4 24 4 5 -10 -11 -9 -16 -16 -11 -16 5 0 2
-8 -5 -17 -15 -18 -14 -17 39 4 6 3 12 0 12 -7 0 -6 -3 -9 -8 -6 -4 2 -16 -2
-27 -10 -18 -14 -18 -14 3 -14 11 0 28 10 36 22 l16 22 0 -22 c0 -19 5 -22 35
-22 19 0 35 5 35 10 0 6 5 10 11 10 5 0 7 -5 4 -10 -4 -7 8 -10 34 -8 23 2 41
6 41 11 0 4 7 7 15 7 8 0 15 -4 15 -10 0 -5 5 -10 11 -10 5 0 7 5 4 10 -3 6
-1 10 4 10 6 0 11 -4 11 -10 0 -16 90 -12 106 5 8 8 22 11 30 8 9 -3 11 -8 6
-12 -6 -3 23 -7 64 -9 46 -2 74 1 74 8 0 5 12 10 26 10 23 0 24 1 10 16 -23
22 -20 34 9 34 14 0 25 4 25 9 0 15 -18 23 -25 12 -8 -14 -35 -2 -35 15 0 9
-11 14 -30 14 -26 0 -29 2 -18 14 10 11 16 11 27 2 12 -9 14 -7 8 9 -7 20 -7
20 8 1 8 -11 15 -24 15 -29 0 -4 8 -7 18 -5 9 1 23 -1 30 -5 7 -5 12 -3 12 3
0 7 7 5 16 -4 8 -9 21 -16 27 -16 7 0 4 -7 -6 -14 -12 -9 -14 -16 -8 -21 6 -3
11 -1 11 5 0 6 10 15 23 21 12 5 33 16 47 24 18 11 27 11 38 2 9 -7 10 -13 3
-15 -16 -5 -14 -19 4 -19 8 0 12 4 9 8 -2 4 3 12 12 17 28 16 6 31 -41 29 -36
-2 -44 1 -40 13 3 8 -4 21 -15 28 -11 7 -20 8 -20 3 0 -6 5 -13 10 -16 13 -8
13 -35 -1 -35 -5 0 -8 4 -4 9 3 5 0 13 -6 17 -16 9 -30 -18 -17 -33 7 -9 7
-13 0 -13 -6 0 -12 5 -14 11 -2 5 -11 11 -20 13 -21 3 -33 14 -33 28 0 6 -13
12 -29 13 -16 0 -31 6 -34 13 -2 7 -10 12 -18 12 -8 0 -14 5 -14 10 0 6 -8 10
-17 10 -17 1 -17 1 0 11 20 12 40 3 30 -14 -4 -7 1 -6 11 2 13 11 20 11 28 3
7 -7 19 -12 27 -12 14 1 14 2 0 13 -16 13 -34 61 -18 51 5 -3 9 -1 9 5 0 6 7
8 15 5 8 -4 15 -1 15 5 0 6 -5 11 -10 11 -12 0 -10 59 2 66 4 3 5 11 1 19 -3
8 0 15 5 15 19 0 22 -18 6 -34 -8 -9 -11 -16 -5 -16 6 0 11 -13 11 -30 0 -20
5 -30 15 -30 8 0 15 -4 15 -10 0 -5 7 -10 15 -10 8 0 15 -5 15 -11 0 -5 -4 -7
-10 -4 -5 3 -10 2 -10 -4 0 -17 18 -22 24 -6 6 18 46 20 46 3 0 -6 3 -9 6 -6
9 10 -16 49 -27 43 -5 -4 -9 -2 -9 4 0 5 8 12 18 14 13 4 12 5 -4 6 -12 0 -24
-6 -28 -14 -7 -19 -26 -19 -26 0 0 8 -8 15 -17 15 -14 0 -15 2 -4 9 7 5 31 8
52 7 30 -2 40 2 45 16 3 10 9 18 14 18 5 0 7 8 4 18 -5 14 -3 14 10 -2 18 -22
22 -5 6 24 -7 13 -7 21 0 25 5 3 10 -3 10 -13 0 -25 29 -37 37 -16 3 8 3 17 0
21 -4 3 8 15 26 27 49 33 58 59 54 158 -4 78 -2 88 14 93 10 4 24 3 31 -2 7
-4 15 -8 18 -9 3 0 19 -6 35 -13 17 -6 55 -21 85 -32 30 -12 64 -25 75 -29 32
-14 69 -24 78 -22 4 1 17 -3 29 -9 33 -18 78 -29 78 -18 0 5 -12 11 -27 15
-16 3 -46 12 -67 19 -38 12 -37 13 45 11 130 -2 619 26 619 35 0 9 -362 5
-378 -4 -14 -9 -281 -10 -327 -1 -22 4 -52 16 -67 27 -20 15 -36 18 -64 14
-26 -4 -48 0 -75 13 -21 11 -45 20 -53 20 -8 0 -21 6 -28 14 -8 7 -41 26 -73
42 -33 16 -64 34 -70 39 -37 40 -129 96 -180 110 -66 19 -90 36 -112 78 -14
28 -50 206 -52 257 0 14 -1 38 -1 53 -1 19 10 41 32 65 48 53 90 117 122 186
35 74 64 242 64 366 0 52 3 169 6 260 5 149 -2 306 -17 368 -10 41 40 73 78
50 6 -3 44 -5 85 -4 62 1 80 -2 108 -20 32 -22 74 -22 66 -1 -2 7 0 18 5 26 8
12 14 12 43 1 40 -17 48 -27 48 -62 0 -18 -5 -28 -15 -28 -19 0 -65 -21 -65
-31 0 -4 -13 -21 -29 -38 -26 -28 -34 -31 -69 -25 -52 8 -65 -11 -29 -42 28
-24 26 -34 -9 -34 -13 0 -25 -4 -28 -9 -3 -5 -22 -12 -41 -15 -24 -5 -35 -12
-35 -24 0 -9 -7 -26 -15 -36 -22 -30 -19 -33 30 -30 47 3 52 -4 35 -37 -8 -14
-7 -19 1 -19 8 0 8 -4 -1 -15 -15 -18 -16 -17 31 -33 49 -17 73 -15 114 7 33
17 34 19 13 24 -13 4 -27 2 -32 -3 -15 -15 -52 -12 -65 4 -7 8 -11 27 -9 43 3
24 7 28 31 25 30 -4 97 34 97 54 0 28 33 74 52 74 12 0 35 11 52 24 29 22 112
56 137 56 6 0 25 11 42 24 18 13 54 27 81 31 46 6 49 5 36 -10 -7 -9 -9 -15
-4 -14 56 10 30 -24 -43 -56 -54 -24 -120 -34 -141 -21 -7 4 -10 2 -6 -7 2 -7
-6 -25 -20 -38 -25 -26 -45 -89 -38 -121 4 -22 16 -23 36 -3 22 22 39 19 31
-7 -7 -20 -5 -21 39 -15 25 4 65 16 89 28 23 12 53 23 67 24 14 1 57 5 95 9
39 4 115 3 169 -2 81 -8 102 -7 114 4 20 20 54 18 50 -3 -2 -15 6 -19 45 -21
42 -3 47 -1 47 17 0 13 -7 21 -17 21 -17 1 -17 1 0 14 16 12 17 66 17 870 l0
856 -1253 0 c-1176 0 -1254 -1 -1268 -18z m1521 -56 c0 -1 -5 -16 -10 -32 -11
-32 -71 -67 -78 -46 -2 7 -12 12 -23 12 -10 0 -19 3 -19 8 0 12 40 33 51 27 5
-4 21 3 35 14 24 19 44 27 44 17z m-380 -276 c0 -45 -63 -129 -97 -130 -7 0
-18 -10 -24 -22 -11 -21 -12 -21 -26 15 -18 43 -44 49 -80 16 -30 -29 -53 -11
-53 42 0 30 6 42 30 59 31 22 50 20 50 -5 0 -14 39 -13 80 2 8 3 23 7 33 8 10
1 26 9 35 18 23 24 52 22 52 -3z m-70 -159 c0 -6 -4 -13 -10 -16 -5 -3 -10 1
-10 9 0 9 5 16 10 16 6 0 10 -4 10 -9z m-2285 -311 c3 -5 -1 -10 -9 -10 -9 0
-16 5 -16 10 0 6 4 10 9 10 6 0 13 -4 16 -10z m45 -84 c0 -3 -4 -8 -10 -11 -5
-3 -10 -1 -10 4 0 6 5 11 10 11 6 0 10 -2 10 -4z m1625 -185 c3 -5 1 -12 -5
-16 -5 -3 -10 1 -10 9 0 18 6 21 15 7z m327 -14 c21 -21 33 -67 18 -67 -4 0
-17 11 -30 25 -13 14 -18 25 -12 25 7 0 12 5 12 11 0 5 -5 7 -12 3 -6 -4 -8
-3 -4 4 3 5 0 13 -6 15 -10 4 -10 6 -1 6 7 1 23 -9 35 -22z m1598 -82 c0 -8 7
-15 15 -15 8 0 15 -4 15 -10 0 -13 -10 -13 -50 2 -31 10 -32 12 -15 25 24 17
35 17 35 -2z m-54 -52 c-10 -10 -19 5 -10 18 6 11 8 11 12 0 2 -7 1 -15 -2
-18z m-32 -14 c-2 -4 -23 -7 -46 -7 l-43 -1 24 18 c19 14 28 16 46 7 13 -6 21
-14 19 -17z m-1024 0 c0 -5 5 -7 10 -4 6 3 10 1 10 -4 0 -6 12 -11 26 -11 18
0 25 -5 22 -17 -5 -25 -34 -24 -63 2 -26 25 -33 45 -15 45 6 0 10 -5 10 -11z
m645 -37 c-28 -17 -83 -37 -72 -25 11 11 73 41 87 42 8 0 2 -7 -15 -17z m235
-103 c-17 -11 -33 -19 -35 -19 -12 0 -3 22 16 41 16 16 23 18 35 8 12 -10 10
-15 -16 -30z m-885 21 c-3 -5 -12 -10 -18 -10 -7 0 -6 4 3 10 19 12 23 12 15
0z m-1585 -10 c0 -5 9 -10 19 -10 24 0 33 -13 25 -33 -5 -14 -11 -13 -45 5
-40 21 -48 33 -26 41 20 9 27 8 27 -3z m2680 0 c0 -5 -7 -10 -16 -10 -8 0 -12
5 -9 10 3 6 10 10 16 10 5 0 9 -4 9 -10z m-2810 -100 c0 -5 -4 -10 -10 -10 -5
0 -10 5 -10 10 0 6 5 10 10 10 6 0 10 -4 10 -10z m2430 -134 c0 -3 -4 -8 -10
-11 -5 -3 -10 -1 -10 4 0 6 5 11 10 11 6 0 10 -2 10 -4z m-1650 -25 c0 -5 -12
-11 -27 -13 -16 -3 -37 -9 -47 -13 -14 -6 -17 -5 -12 3 4 6 21 16 39 21 43 12
47 12 47 2z m10 -55 c0 -2 -7 -7 -16 -10 -8 -3 -12 -2 -9 4 6 10 25 14 25 6z
m1200 -6 c0 -5 -5 -10 -11 -10 -5 0 -7 5 -4 10 3 6 8 10 11 10 2 0 4 -4 4 -10z
m-2230 -110 c0 -5 -4 -10 -10 -10 -5 0 -10 5 -10 10 0 6 5 10 10 10 6 0 10 -4
10 -10z m-310 -146 c0 -2 -7 -4 -15 -4 -8 0 -15 4 -15 10 0 5 7 7 15 4 8 -4
15 -8 15 -10z m1494 -123 c3 -5 7 -29 8 -53 2 -31 7 -44 16 -41 6 3 12 0 12
-6 0 -6 14 -14 32 -19 43 -11 46 -29 6 -37 -18 -4 -59 -16 -92 -27 -65 -21
-81 -15 -71 30 4 16 1 22 -12 22 -11 0 -14 3 -7 8 5 4 18 25 29 47 35 78 62
103 79 76z m-198 -205 c-7 -14 -12 -43 -12 -65 1 -32 -3 -41 -16 -41 -9 0 -19
6 -22 13 -6 12 -1 -13 10 -55 l6 -23 -17 23 c-9 13 -18 33 -20 45 -1 12 -6 29
-9 38 -4 10 -2 22 6 28 7 6 27 22 43 35 38 32 47 32 31 2z m-246 -11 c0 -8 -4
-15 -10 -15 -5 0 -7 7 -4 15 4 8 8 15 10 15 2 0 4 -7 4 -15z m144 -86 c-8 -14
-24 -10 -24 6 0 9 6 12 15 9 8 -4 12 -10 9 -15z m464 -6 c14 -22 13 -23 -21
-23 -36 0 -56 13 -37 25 6 4 8 11 4 17 -13 21 39 2 54 -19z m373 -36 c-13 -32
-27 -35 -36 -6 -8 23 -8 22 20 37 24 13 29 4 16 -31z m-818 6 c-20 -7 -15 -23
6 -23 24 0 35 -36 13 -45 -9 -3 -13 -3 -9 1 4 4 -10 23 -30 42 -30 27 -33 33
-15 28 12 -4 22 -4 21 1 -3 20 2 26 14 14 10 -11 10 -14 0 -18z m224 19 c7 -4
10 -16 9 -27 -2 -11 2 -30 10 -41 12 -20 11 -21 -5 -17 -14 3 -20 -2 -23 -21
-3 -14 -1 -26 5 -26 5 0 7 -11 5 -25 -3 -13 -2 -22 2 -20 4 3 10 -4 13 -15 5
-21 86 -75 157 -105 25 -11 48 -24 52 -30 12 -16 9 -30 -4 -17 -8 8 -15 9 -25
1 -7 -7 -13 -9 -13 -5 0 3 -11 1 -25 -4 -16 -6 -26 -6 -31 1 -4 6 -11 5 -22
-3 -12 -10 -14 -10 -8 0 5 8 1 12 -13 12 -10 0 -22 -6 -25 -12 -3 -10 -8 -9
-18 2 -8 10 -27 15 -46 14 -18 -1 -35 2 -37 7 -3 4 -13 5 -22 2 -13 -5 -15 -2
-9 20 4 17 2 27 -4 27 -6 0 -8 -4 -5 -10 3 -5 1 -10 -4 -10 -6 0 -11 4 -11 10
0 5 -11 12 -26 16 -16 4 -24 12 -22 23 2 9 -3 22 -12 29 -8 8 -9 11 -2 7 9 -5
11 0 7 18 -5 18 -2 28 12 36 14 8 15 10 3 11 -9 0 -21 -5 -28 -12 -7 -7 -12
-8 -12 -2 0 14 44 34 57 26 5 -4 12 -14 15 -22 3 -10 6 -8 10 8 4 14 2 22 -7
22 -7 0 -16 7 -19 16 -10 25 -7 36 7 28 7 -5 6 0 -3 11 -9 11 -10 16 -3 11 9
-5 12 0 10 16 -1 17 4 24 21 26 13 2 26 10 29 18 6 15 40 19 60 6z m83 -17
c24 -8 48 -14 54 -13 14 2 108 -12 119 -19 12 -7 -41 -45 -56 -40 -6 3 -3 6 8
6 14 1 16 4 8 12 -8 8 -17 7 -34 -5 -27 -19 -54 -21 -43 -4 4 7 3 8 -4 4 -7
-4 -22 0 -34 8 -12 9 -34 16 -48 16 -20 0 -22 2 -10 10 12 8 10 10 -9 10 -20
0 -21 2 -11 15 15 18 9 18 60 0z m-325 -55 c-3 -5 -11 -10 -16 -10 -6 0 -7 5
-4 10 3 6 11 10 16 10 6 0 7 -4 4 -10z m-58 -165 c0 -8 -7 -15 -15 -15 -12 0
-12 3 -2 15 7 8 13 15 15 15 1 0 2 -7 2 -15z m-62 -35 c3 -5 -1 -10 -10 -10
-9 0 -13 5 -10 10 3 6 8 10 10 10 2 0 7 -4 10 -10z m72 -25 c3 -20 3 -20 -6 0
-9 19 -10 19 -10 1 -1 -15 -4 -16 -16 -6 -8 7 -12 17 -9 22 10 16 39 4 41 -17z
m228 -843 c-3 -3 -11 0 -18 7 -9 10 -8 11 6 5 10 -3 15 -9 12 -12z m-17 -56
c16 -1 26 -7 28 -18 1 -10 -2 -18 -7 -18 -5 0 -4 -11 1 -25 9 -24 8 -25 -18
-18 -15 4 -35 6 -44 5 -20 -1 -24 23 -6 34 7 4 8 3 4 -4 -4 -7 -1 -12 8 -12 9
0 19 0 23 -1 4 0 9 4 11 10 2 6 -3 11 -11 11 -8 0 -20 7 -27 15 -9 11 -16 12
-26 4 -7 -6 -18 -8 -24 -4 -5 3 -10 1 -10 -4 0 -6 6 -11 13 -11 8 0 7 -3 -3
-10 -9 -5 -19 -5 -27 2 -7 6 -13 7 -13 2 0 -10 -20 17 -20 28 0 3 8 5 18 3 9
-1 22 1 27 5 14 11 48 17 64 12 7 -3 25 -5 39 -6z m906 -8 c-2 -13 -2 -17 2
-11 4 9 12 9 30 -4 14 -8 27 -13 31 -9 3 3 2 6 -4 6 -5 0 -10 7 -10 15 0 9 10
15 24 15 13 0 23 -5 23 -11 0 -5 -5 -7 -11 -4 -6 4 -9 -4 -7 -21 2 -23 -3 -31
-26 -42 -22 -11 -30 -12 -36 -2 -4 7 -13 9 -19 6 -19 -12 -32 3 -21 24 7 13 7
21 -1 26 -9 5 -6 11 6 21 24 17 24 17 19 -9z m-798 -13 c4 -8 10 -12 15 -9 5
3 9 0 9 -6 0 -6 4 -9 9 -6 5 3 23 -8 41 -24 18 -17 25 -28 16 -24 -12 4 -16 0
-16 -15 0 -12 -5 -21 -11 -21 -5 0 -9 8 -7 18 3 20 -9 42 -23 42 -6 0 -8 -4
-4 -9 3 -5 1 -12 -4 -16 -6 -3 -7 -13 -4 -21 5 -14 2 -14 -26 1 -18 9 -38 14
-45 12 -7 -3 -13 1 -13 8 0 10 7 11 25 4 14 -6 31 -8 39 -5 21 8 4 34 -27 41
-30 7 -47 30 -27 39 24 9 48 6 53 -9z m-271 -15 c3 -6 -1 -7 -9 -4 -18 7 -21
14 -7 14 6 0 13 -4 16 -10z m185 -70 c24 -15 7 -19 -20 -5 -15 8 -19 14 -10
14 8 1 22 -3 30 -9z m50 -14 c0 -3 -4 -8 -10 -11 -5 -3 -10 -1 -10 4 0 6 5 11
10 11 6 0 10 -2 10 -4z m190 -6 c18 -12 2 -12 -25 0 -13 6 -15 9 -5 9 8 0 22
-4 30 -9z m-113 -16 c-3 -3 -12 -4 -19 -1 -8 3 -5 6 6 6 11 1 17 -2 13 -5z
m-267 -20 c0 -13 3 -14 15 -4 15 13 35 6 35 -12 0 -6 -3 -8 -6 -5 -4 3 -15 2
-25 -4 -13 -6 -19 -6 -19 0 0 6 -6 8 -14 5 -8 -3 -12 -12 -9 -20 3 -8 1 -14
-5 -14 -20 0 -23 32 -3 37 12 3 17 11 14 19 -3 8 0 14 6 14 6 0 11 -7 11 -16z
m193 4 c24 4 35 -28 14 -40 -18 -10 -23 -28 -7 -28 11 0 42 55 34 62 -2 3 16
1 42 -5 41 -10 44 -12 28 -24 -17 -12 -16 -13 7 -14 20 -1 21 -2 4 -6 -11 -3
-24 -9 -29 -14 -16 -15 -29 -10 -16 6 17 20 7 29 -21 20 -15 -5 -18 -9 -9 -15
9 -5 9 -9 1 -14 -6 -4 -11 -2 -11 4 0 6 -5 8 -10 5 -6 -4 -8 -11 -5 -16 4 -5
1 -9 -5 -9 -6 0 -8 -4 -5 -10 3 -5 0 -7 -8 -4 -8 3 -18 1 -21 -4 -10 -17 -44
-2 -39 17 3 11 -5 21 -22 29 -31 14 -38 15 -31 3 8 -12 -41 -20 -52 -9 -6 6
-12 6 -16 0 -3 -6 8 -15 24 -21 18 -6 30 -6 30 0 0 5 6 9 13 9 7 0 13 -8 13
-19 0 -13 -6 -17 -20 -13 -13 3 -17 1 -12 -6 4 -7 2 -12 -3 -12 -6 0 -11 5
-11 11 0 8 -5 8 -15 -1 -12 -10 -18 -10 -30 0 -20 17 -35 4 -35 -30 0 -26 -4
-29 -25 -28 -14 1 -25 3 -25 4 0 14 15 34 26 34 8 0 14 7 14 15 0 22 -4 30
-14 27 -4 -1 -15 3 -23 10 -13 10 -12 13 7 20 14 5 28 4 35 -2 9 -8 21 -3 44
16 17 14 31 21 31 16 0 -7 11 -7 32 -1 42 12 57 11 38 -1 -12 -8 -9 -10 12
-10 15 0 30 5 34 11 5 8 8 8 14 0 5 -9 11 -7 21 5 12 16 12 17 -3 11 -10 -3
-18 -2 -18 2 0 5 -8 8 -17 6 -10 -1 -12 0 -5 2 7 3 9 9 6 15 -5 7 -2 8 7 2 8
-5 22 -7 32 -6z m-83 -3 c0 -2 -10 -10 -22 -16 -21 -11 -22 -11 -9 4 13 16 31
23 31 12z m820 -5 c0 -5 -4 -10 -10 -10 -5 0 -10 5 -10 10 0 6 5 10 10 10 6 0
10 -4 10 -10z m-570 -20 c0 -5 -4 -10 -10 -10 -5 0 -10 5 -10 10 0 6 5 10 10
10 6 0 10 -4 10 -10z m37 4 c-3 -3 -12 -4 -19 -1 -8 3 -5 6 6 6 11 1 17 -2 13
-5z m73 -4 c0 -5 -6 -10 -14 -10 -8 0 -18 5 -21 10 -3 6 3 10 14 10 12 0 21
-4 21 -10z m250 -10 c0 -5 -5 -10 -11 -10 -5 0 -7 5 -4 10 3 6 8 10 11 10 2 0
4 -4 4 -10z m77 4 c-3 -3 -12 -4 -19 -1 -8 3 -5 6 6 6 11 1 17 -2 13 -5z
m-367 -13 c0 -5 -8 -12 -17 -15 -10 -3 2 -3 27 -1 43 4 43 4 13 -6 -44 -13
-42 -23 2 -16 19 3 37 2 39 -2 5 -8 -19 -32 -50 -49 -15 -8 -11 -10 21 -10 26
0 33 3 24 9 -15 9 -6 13 24 10 9 -1 17 4 17 13 0 9 -6 16 -12 16 -9 0 -8 3 2
10 12 7 10 11 -10 19 -14 5 -20 10 -15 11 6 0 3 5 -5 10 -12 8 -11 10 7 10 12
0 25 -5 29 -11 4 -7 24 -9 55 -5 51 7 55 3 50 -41 -1 -7 4 -13 11 -13 10 0 10
-2 0 -9 -20 -12 11 -22 47 -15 31 7 60 49 38 57 -7 2 -9 8 -5 12 13 14 29 -7
22 -28 -5 -18 -4 -20 6 -10 9 8 19 9 31 2 21 -11 63 -3 97 17 12 8 22 10 22 5
0 -5 -9 -13 -20 -16 -11 -3 -20 -11 -20 -17 0 -5 -7 -8 -15 -4 -12 4 -13 2 -5
-13 5 -11 24 -22 41 -26 17 -4 28 -9 25 -12 -3 -4 2 -12 12 -19 16 -12 16 -14
-2 -31 -18 -17 -18 -17 -7 4 10 19 9 22 -4 17 -19 -8 -67 4 -61 15 3 4 -6 13
-20 20 -31 14 -31 14 -31 -4 0 -8 7 -15 14 -15 11 0 11 -3 1 -14 -11 -12 -16
-12 -34 -1 -23 15 -44 4 -44 -22 0 -9 -6 -8 -19 4 -11 9 -18 20 -15 25 3 5 12
4 20 -3 11 -9 14 -8 14 3 0 8 12 21 28 28 22 11 24 14 9 17 -9 3 -15 9 -12 14
4 5 -1 9 -9 9 -10 0 -16 -9 -16 -22 0 -19 -2 -20 -10 -8 -6 9 -10 10 -10 3 0
-16 -29 -20 -73 -10 -30 8 -35 12 -26 23 14 17 9 17 -25 4 -17 -6 -26 -6 -26
0 0 6 7 10 15 10 8 0 15 3 16 8 0 4 2 15 4 25 3 17 2 17 -14 3 -20 -18 -36
-21 -26 -6 3 6 1 10 -5 10 -7 0 -10 -7 -6 -15 8 -22 -11 -65 -29 -65 -8 0 -15
-7 -15 -16 0 -10 -6 -14 -14 -11 -17 7 -36 -11 -36 -35 0 -10 -5 -18 -11 -18
-6 0 -8 7 -5 15 3 9 -1 18 -9 21 -23 9 -18 26 6 19 14 -5 19 -3 15 3 -3 6 0
13 6 15 7 3 -4 6 -24 6 -21 1 -38 6 -38 11 0 6 -7 10 -16 10 -9 0 -12 -5 -8
-12 4 -7 4 -10 -1 -6 -4 4 -14 3 -21 -3 -17 -14 -64 -21 -64 -10 0 12 20 25
41 26 20 2 52 32 55 52 2 9 -5 13 -19 11 -12 -2 -21 -9 -20 -15 2 -7 -4 -10
-13 -6 -24 9 -10 27 27 34 19 3 43 10 54 17 25 14 25 14 25 3z m240 -11 c-9
-17 -30 -28 -30 -16 0 16 15 36 26 36 12 0 12 -4 4 -20z m197 -4 c-2 -6 -12
-10 -21 -10 -9 1 -16 -2 -16 -7 0 -5 -5 -9 -11 -9 -5 0 -7 5 -3 12 5 7 0 9
-14 6 -12 -3 -29 0 -39 7 -14 11 -8 13 45 13 43 0 62 -4 59 -12z m-168 -45
c-13 -11 -25 -16 -27 -11 -5 14 32 48 42 39 5 -5 -1 -17 -15 -28z m-334 9 c3
-5 1 -10 -4 -10 -6 0 -11 5 -11 10 0 6 2 10 4 10 3 0 8 -4 11 -10z m-310 -52
c3 -3 -7 -7 -23 -10 -16 -2 -33 1 -39 7 -8 9 -2 11 23 11 18 -1 36 -4 39 -8z
m535 -8 c0 -5 -4 -10 -10 -10 -5 0 -10 5 -10 10 0 6 5 10 10 10 6 0 10 -4 10
-10z m90 -19 c3 -1 -2 -6 -10 -11 -10 -6 -11 -10 -2 -10 6 0 12 -5 12 -11 0
-5 -4 -7 -10 -4 -6 4 -7 -1 -3 -11 4 -12 2 -15 -8 -12 -8 3 -13 10 -12 16 2 6
-9 10 -24 9 -14 -1 -28 4 -31 12 -2 8 0 11 6 7 5 -3 12 1 15 8 5 13 21 14 67
7z m-115 -11 c-17 -7 -17 -9 -2 -9 9 -1 17 -5 17 -11 0 -12 -34 -12 -70 0 -23
7 -23 8 -3 9 12 1 25 6 28 11 3 6 16 10 28 9 21 0 21 -1 2 -9z m-172 -7 c-7
-2 -19 -2 -25 0 -7 3 -2 5 12 5 14 0 19 -2 13 -5z m487 -25 c0 -13 -23 -5 -28
10 -2 7 2 10 12 6 9 -3 16 -11 16 -16z"/>
<path d="M1835 1419 c-11 -17 1 -21 15 -4 8 9 8 15 2 15 -6 0 -14 -5 -17 -11z"/>
<path d="M1790 1402 c-13 -14 -12 -15 4 -9 16 6 17 3 12 -19 -5 -17 -3 -23 4
-19 12 7 14 52 3 58 -5 3 -15 -2 -23 -11z"/>
<path d="M2770 350 c0 -5 5 -10 11 -10 5 0 7 5 4 10 -3 6 -8 10 -11 10 -2 0
-4 -4 -4 -10z"/>
<path d="M1900 379 c0 -5 5 -7 10 -4 6 3 10 8 10 11 0 2 -4 4 -10 4 -5 0 -10
-5 -10 -11z"/>
<path d="M1875 160 c-8 -13 5 -13 25 0 13 8 13 10 -2 10 -9 0 -20 -4 -23 -10z"/>
<path d="M2114 135 c-12 -9 -14 -14 -6 -15 7 0 20 7 28 15 20 19 4 20 -22 0z"/>
<path d="M2525 120 c-3 -5 -4 -10 -1 -10 2 0 12 -3 20 -6 12 -5 15 -2 10 10
-7 18 -20 21 -29 6z"/>
<path d="M2585 80 c-3 -5 -1 -10 4 -10 6 0 11 5 11 10 0 6 -2 10 -4 10 -3 0
-8 -4 -11 -10z"/>
<path d="M642 3969 c2 -7 10 -15 17 -17 8 -3 12 1 9 9 -2 7 -10 15 -17 17 -8
3 -12 -1 -9 -9z"/>
<path d="M3100 2291 c0 -11 -6 -22 -12 -25 -10 -4 -10 -8 -2 -11 7 -3 10 -15
7 -25 -7 -24 -6 -24 43 -1 38 18 72 48 63 54 -9 6 -76 27 -87 27 -7 0 -12 -9
-12 -19z"/>
<path d="M1575 2280 c-3 -5 -1 -10 4 -10 6 0 11 5 11 10 0 6 -2 10 -4 10 -3 0
-8 -4 -11 -10z"/>
<path d="M385 1990 c-3 -5 -1 -10 4 -10 6 0 11 5 11 10 0 6 -2 10 -4 10 -3 0
-8 -4 -11 -10z"/>
<path d="M278 1973 c7 -3 16 -2 19 1 4 3 -2 6 -13 5 -11 0 -14 -3 -6 -6z"/>
<path d="M1391 1904 c0 -11 3 -14 6 -6 3 7 2 16 -1 19 -3 4 -6 -2 -5 -13z"/>
<path d="M3970 1840 c-12 -7 -12 -12 -3 -21 21 -21 -12 -49 -48 -42 -16 3 -35
1 -41 -5 -7 -5 -40 -18 -73 -27 -33 -10 -64 -20 -70 -23 -5 -4 -16 -7 -23 -8
-26 -4 -23 -12 8 -22 16 -6 33 -18 36 -27 7 -17 49 -21 59 -4 6 9 82 4 93 -6
1 -1 -3 -14 -9 -29 -8 -17 -20 -26 -36 -26 -13 0 -31 -9 -40 -20 -10 -11 -23
-20 -31 -20 -7 0 -27 -13 -45 -30 -21 -20 -61 -38 -117 -56 -111 -33 -108 -32
-84 -33 12 -1 25 -8 28 -17 4 -9 13 -14 21 -10 9 3 43 -8 77 -24 34 -17 70
-30 80 -30 10 0 30 -7 44 -17 17 -11 50 -17 101 -18 66 -1 76 1 81 17 2 10 8
18 13 18 5 0 9 110 9 245 0 135 -3 245 -7 245 -5 0 -15 -5 -23 -10z"/>
<path d="M1464 1813 c-14 -5 -6 -43 9 -43 6 0 7 3 4 7 -4 3 -2 12 4 19 11 13
1 24 -17 17z"/>
<path d="M3440 1578 c-30 -17 -90 -73 -90 -84 0 -15 29 1 40 20 9 17 23 26 44
28 17 2 31 8 31 13 0 6 4 16 9 23 13 21 4 21 -34 0z"/>
<path d="M3345 1471 c-3 -6 -12 -11 -18 -10 -26 3 -44 -2 -63 -17 -19 -15 -19
-16 1 -10 18 5 18 4 -2 -10 -28 -20 -30 -44 -3 -44 11 0 20 -4 20 -10 0 -5 -7
-10 -16 -10 -8 0 -12 -4 -9 -10 3 -5 28 -10 55 -10 29 0 51 -5 54 -12 3 -7 3
-3 0 10 -5 22 -3 23 39 21 27 -2 52 3 62 11 13 11 21 11 36 2 25 -16 24 -2 -2
42 -11 19 -18 40 -15 45 4 5 -18 7 -55 4 -43 -4 -63 -2 -69 7 -5 9 -9 9 -15 1z
m55 -31 c0 -13 -11 -13 -30 0 -12 8 -11 10 8 10 12 0 22 -4 22 -10z"/>
<path d="M3498 1443 c7 -3 16 -2 19 1 4 3 -2 6 -13 5 -11 0 -14 -3 -6 -6z"/>
<path d="M3587 1344 c-13 -13 5 -24 39 -24 38 0 46 15 12 24 -30 8 -43 7 -51
0z"/>
<path d="M1555 1180 c-4 -6 6 -10 22 -10 22 0 25 2 13 10 -19 12 -27 12 -35 0z"/>
<path d="M1611 1164 c0 -11 3 -14 6 -6 3 7 2 16 -1 19 -3 4 -6 -2 -5 -13z"/>
<path d="M880 1158 c0 -5 18 -8 40 -8 29 0 40 -4 40 -15 0 -8 8 -15 18 -15 13
0 14 2 3 9 -11 7 -10 11 5 20 22 12 18 13 -53 15 -29 0 -53 -2 -53 -6z"/>
<path d="M1160 1151 c0 -5 7 -12 16 -15 14 -5 15 -4 4 9 -14 17 -20 19 -20 6z"/>
<path d="M1200 1135 c0 -8 2 -15 4 -15 2 0 6 7 10 15 3 8 1 15 -4 15 -6 0 -10
-7 -10 -15z"/>
<path d="M1437 1129 c7 -7 15 -10 18 -7 3 3 -2 9 -12 12 -14 6 -15 5 -6 -5z"/>
<path d="M1567 909 c-10 -11 -20 -34 -23 -52 l-5 -32 17 30 c9 17 20 32 24 35
10 8 20 40 12 39 -4 0 -15 -9 -25 -20z"/>
<path d="M1517 867 c-3 -8 -2 -20 3 -26 5 -9 8 -4 8 13 0 29 -3 32 -11 13z"/>
<path d="M1513 783 c-7 -2 -13 -14 -13 -24 0 -11 -4 -17 -10 -14 -6 3 -7 -1
-4 -10 4 -9 10 -13 13 -8 8 8 32 64 28 62 -1 0 -8 -3 -14 -6z"/>
<path d="M1441 754 c0 -11 3 -14 6 -6 3 7 2 16 -1 19 -3 4 -6 -2 -5 -13z"/>
<path d="M1480 705 c0 -6 5 -16 12 -23 9 -9 8 -12 -4 -12 -9 0 -19 6 -21 13
-4 9 -6 9 -6 -1 -1 -16 28 -27 40 -15 6 6 4 16 -6 29 -8 10 -15 14 -15 9z"/>
<path d="M1515 700 c-3 -5 -1 -10 4 -10 6 0 11 5 11 10 0 6 -2 10 -4 10 -3 0
-8 -4 -11 -10z"/>
<path d="M1517 666 c-4 -10 -1 -13 9 -9 15 6 19 23 5 23 -5 0 -11 -7 -14 -14z"/>
<path d="M1465 640 c3 -5 8 -10 11 -10 2 0 4 5 4 10 0 6 -5 10 -11 10 -5 0 -7
-4 -4 -10z"/>
<path d="M1565 640 c-4 -6 -11 -8 -16 -5 -5 4 -9 -1 -9 -9 0 -22 13 -20 28 4
7 11 10 20 8 20 -3 0 -8 -5 -11 -10z"/>
<path d="M3090 636 c0 -8 31 -36 41 -36 5 0 1 9 -8 20 -16 18 -33 26 -33 16z"/>
<path d="M1567 605 c-4 -8 -2 -17 3 -20 6 -4 10 3 10 14 0 25 -6 27 -13 6z"/>
<path d="M1476 584 c5 -19 3 -25 -4 -20 -8 5 -10 1 -5 -9 5 -13 7 -14 14 -3
12 18 11 58 -1 58 -6 0 -8 -11 -4 -26z"/>
<path d="M3863 600 c-68 -6 -113 -20 -65 -20 12 0 22 -4 22 -9 0 -4 -25 -9
-56 -10 -58 -1 -74 -6 -74 -21 0 -13 50 -19 188 -22 l122 -3 0 48 c0 54 10 51
-137 37z"/>
<path d="M1570 559 c-13 -9 -13 -10 0 -6 8 2 20 -3 27 -12 7 -9 13 -11 13 -5
0 20 -24 34 -40 23z"/>
<path d="M3110 566 c0 -2 7 -7 16 -10 8 -3 12 -2 9 4 -6 10 -25 14 -25 6z"/>
<path d="M3175 560 c3 -5 -6 -12 -20 -16 -14 -3 -25 -10 -25 -15 0 -5 14 -2
30 6 17 9 28 20 25 25 -4 6 -8 10 -11 10 -3 0 -2 -4 1 -10z"/>
<path d="M659 526 c-19 -17 -45 -18 -337 -21 -280 -3 -317 -5 -320 -19 -3 -14
11 -16 115 -12 65 3 237 8 382 12 256 7 264 8 290 30 l26 23 -37 2 c-21 1 -52
2 -69 3 -17 0 -39 -7 -50 -18z"/>
<path d="M1621 532 c-7 -14 -5 -21 11 -31 11 -7 23 -10 26 -7 3 3 0 6 -6 6 -7
0 -12 5 -12 10 0 7 7 7 20 0 11 -6 18 -15 15 -20 -4 -6 1 -7 11 -3 12 4 15 3
10 -5 -4 -8 -2 -10 7 -6 8 3 18 1 22 -5 10 -17 21 -13 22 9 1 11 -3 18 -8 14
-15 -9 -69 19 -70 36 0 9 -2 11 -5 3 -3 -7 -12 -9 -20 -6 -7 3 -11 9 -8 14 3
5 3 9 0 9 -3 0 -10 -8 -15 -18z"/>
<path d="M3260 536 c0 -11 8 -16 28 -15 15 0 21 3 12 6 -8 3 -21 10 -27 16 -9
7 -13 5 -13 -7z"/>
<path d="M3452 533 c8 -10 7 -13 -2 -13 -8 0 -11 -3 -8 -6 4 -3 16 -1 27 6 22
11 28 1 11 -16 -10 -10 7 -14 83 -16 16 0 24 -4 18 -7 -15 -10 -1 -23 51 -51
49 -25 51 -35 8 -42 -25 -4 -24 -5 5 -13 17 -5 36 -15 43 -24 10 -13 10 -11 2
12 -14 40 -13 41 23 18 17 -11 31 -25 30 -31 -2 -5 2 -9 9 -7 7 1 13 -2 13 -8
1 -5 8 -23 15 -38 12 -25 15 -26 23 -11 7 13 7 19 -1 22 -7 2 -10 7 -7 11 2 5
-7 18 -20 31 -23 22 -23 24 -7 36 15 12 11 13 -30 14 -27 0 -48 5 -48 10 0 6
-12 16 -27 23 -43 19 -65 40 -51 48 15 10 -32 29 -69 29 -16 0 -27 7 -30 19
-4 14 -13 19 -38 18 -27 -1 -32 -4 -23 -14z"/>
<path d="M1518 498 c5 -21 4 -22 -13 -8 -17 14 -18 14 -6 -7 6 -13 15 -23 19
-23 11 0 13 48 3 55 -5 3 -7 -5 -3 -17z"/>
<path d="M3324 494 c1 -29 2 -29 15 -5 8 14 7 20 -3 24 -10 4 -13 -2 -12 -19z"/>
<path d="M3390 510 c-9 -6 -11 -10 -3 -10 7 0 10 -7 6 -17 -4 -10 -2 -14 5 -9
6 3 10 15 9 26 -1 11 -1 20 -2 20 0 0 -7 -5 -15 -10z"/>
<path d="M3355 500 c-8 -13 -1 -24 14 -19 6 3 7 10 2 18 -6 10 -10 10 -16 1z"/>
<path d="M3243 494 c9 -3 15 -10 12 -15 -4 -5 -1 -9 4 -9 6 0 11 6 11 13 0 8
4 7 11 -3 9 -13 10 -13 6 0 -2 8 -16 16 -33 17 -16 1 -21 -1 -11 -3z"/>
<path d="M3434 481 c4 -5 1 -12 -4 -14 -6 -3 -5 -4 2 -3 15 3 23 26 8 26 -6 0
-9 -4 -6 -9z"/>
<path d="M1540 466 c0 -2 7 -9 15 -16 9 -7 15 -8 15 -2 0 5 -7 12 -15 16 -8 3
-15 4 -15 2z"/>
<path d="M3163 455 c-3 -9 -3 -18 -1 -21 3 -3 8 4 11 16 6 23 -1 27 -10 5z"/>
<path d="M3480 462 c0 -4 9 -13 20 -20 19 -12 20 -11 8 8 -13 20 -28 27 -28
12z"/>
<path d="M3905 461 c-17 -7 -15 -9 14 -16 21 -4 29 -10 21 -15 -8 -5 -4 -9 12
-13 41 -11 48 -8 48 23 0 28 -2 30 -37 29 -21 0 -47 -4 -58 -8z"/>
<path d="M3210 450 c-8 -5 -10 -10 -4 -10 17 0 25 -40 13 -62 -5 -10 -19 -18
-29 -18 -11 0 -20 -4 -20 -10 0 -5 13 -10 29 -10 32 0 49 -15 29 -24 -7 -3 -2
-4 12 -3 14 1 24 8 22 15 -2 10 4 11 19 7 18 -6 21 -4 16 9 -4 9 -2 16 3 16 6
0 10 -4 10 -10 0 -5 10 -10 23 -10 12 0 29 -4 37 -10 12 -8 12 -10 -3 -16 -21
-8 -23 -31 -2 -31 8 0 14 7 13 16 -3 16 6 17 50 7 12 -3 22 -1 22 4 0 5 6 8
13 6 6 -1 9 -1 5 1 -4 2 -4 12 -1 21 4 14 3 14 -5 3 -11 -15 -62 -25 -62 -12
0 4 5 12 11 18 7 7 -4 10 -40 9 -28 -1 -51 2 -51 7 0 5 -11 7 -24 5 -14 -3
-31 -1 -38 3 -11 7 -11 9 0 9 7 0 10 5 7 10 -5 8 -11 7 -21 -1 -13 -10 -13 -8
-4 15 7 20 7 25 -1 20 -8 -4 -9 0 -4 15 7 23 -1 26 -25 11z m46 -107 c1 -21 0
-21 -21 -5 -25 19 -23 35 3 30 10 -2 17 -13 18 -25z m134 -3 c0 -5 -2 -10 -4
-10 -3 0 -8 5 -11 10 -3 6 -1 10 4 10 6 0 11 -4 11 -10z"/>
<path d="M3276 448 c5 -8 2 -9 -9 -5 -23 9 -22 0 1 -12 25 -13 54 4 32 19 -20
13 -33 12 -24 -2z"/>
<path d="M2952 430 c2 -9 -4 -14 -14 -14 -10 1 -18 -2 -18 -7 0 -16 15 -17 35
-3 15 11 16 16 6 27 -10 10 -12 9 -9 -3z"/>
<path d="M3119 428 c-1 -7 -1 -19 0 -26 1 -7 -4 -11 -11 -10 -7 2 -11 -4 -9
-12 2 -8 4 -21 4 -28 0 -7 5 -11 11 -9 6 3 10 10 9 16 -2 6 4 11 13 11 13 0
14 2 0 21 -8 12 -12 28 -9 35 3 8 2 14 -1 14 -3 0 -7 -6 -7 -12z"/>
<path d="M3320 420 c0 -11 6 -20 13 -20 8 0 7 -4 -3 -10 -8 -5 -10 -10 -4 -10
18 0 24 12 13 31 -6 12 -6 19 0 19 5 0 13 -9 16 -20 7 -21 25 -28 25 -10 0 6
-5 10 -11 10 -5 0 -8 4 -5 9 3 5 -1 12 -10 15 -26 10 -34 7 -34 -14z"/>
<path d="M3390 430 c-13 -8 -12 -10 3 -10 9 0 17 5 17 10 0 12 -1 12 -20 0z"/>
<path d="M3016 413 c-4 -11 -2 -13 9 -9 8 3 15 1 15 -5 0 -7 -10 -9 -24 -5
-22 6 -25 3 -24 -26 1 -18 3 -27 6 -20 3 10 7 10 19 0 14 -11 15 -10 9 10 -7
22 -1 26 35 23 27 -3 17 28 -12 38 -22 7 -29 6 -33 -6z"/>
<path d="M3878 423 c7 -3 16 -2 19 1 4 3 -2 6 -13 5 -11 0 -14 -3 -6 -6z"/>
<path d="M3485 409 c-17 -6 -15 -8 10 -8 17 0 36 3 44 8 17 11 -26 12 -54 0z"/>
<path d="M725 389 c-4 -6 -5 -12 -2 -15 2 -3 7 2 10 11 7 17 1 20 -8 4z"/>
<path d="M3167 393 c-4 -3 -7 -11 -7 -17 0 -6 5 -5 12 2 6 6 9 14 7 17 -3 3
-9 2 -12 -2z"/>
<path d="M3390 380 c0 -5 5 -10 10 -10 6 0 10 5 10 10 0 6 -4 10 -10 10 -5 0
-10 -4 -10 -10z"/>
<path d="M3478 367 c19 -18 22 -18 43 -3 22 15 22 16 4 17 -11 0 -30 2 -43 3
-23 3 -23 3 -4 -17z"/>
<path d="M3550 380 c0 -5 5 -10 10 -10 6 0 10 5 10 10 0 6 -4 10 -10 10 -5 0
-10 -4 -10 -10z"/>
<path d="M2960 368 c0 -8 6 -23 14 -33 13 -18 14 -18 9 8 -6 29 -23 48 -23 25z"/>
<path d="M1222 350 c-11 -17 -10 -20 7 -20 11 0 23 5 26 10 3 6 1 10 -5 10 -6
0 -8 5 -5 10 3 6 2 10 -2 10 -5 0 -14 -9 -21 -20z"/>
<path d="M2930 361 c0 -5 -13 -14 -30 -20 -16 -5 -30 -13 -30 -17 0 -3 6 -4
14 -1 10 4 13 0 11 -14 -3 -12 1 -19 7 -17 13 5 58 -30 58 -44 0 -5 -10 -2
-23 6 -39 26 -88 0 -66 -35 7 -11 9 -9 9 7 0 12 7 24 15 28 19 7 47 -3 40 -14
-10 -17 14 -20 29 -4 17 17 21 34 8 34 -5 0 -17 7 -28 15 -19 15 -19 15 1 8
17 -6 18 -5 5 9 -8 8 -21 13 -27 11 -20 -8 -15 11 7 27 21 15 26 30 10 30 -5
0 -10 -4 -10 -9z"/>
<path d="M3848 363 c7 -3 16 -2 19 1 4 3 -2 6 -13 5 -11 0 -14 -3 -6 -6z"/>
<path d="M3893 363 c-21 -8 -15 -29 12 -47 23 -15 30 -13 26 7 -1 5 9 7 21 5
13 -2 23 -8 23 -15 0 -7 6 -18 13 -24 10 -10 12 -8 12 10 0 38 -61 78 -73 49
-3 -8 -6 -6 -6 5 -1 17 -6 19 -28 10z"/>
<path d="M760 340 c-6 -11 -7 -20 -2 -20 6 0 12 9 15 20 3 11 3 20 1 20 -2 0
-8 -9 -14 -20z"/>
<path d="M1041 344 c0 -11 3 -14 6 -6 3 7 2 16 -1 19 -3 4 -6 -2 -5 -13z"/>
<path d="M1445 350 c-3 -6 1 -7 9 -4 18 7 21 14 7 14 -6 0 -13 -4 -16 -10z"/>
<path d="M3553 353 c-22 -3 -30 -8 -27 -18 5 -11 10 -12 25 -2 16 10 21 9 29
-3 8 -12 10 -11 10 8 0 12 -1 21 -2 20 -2 0 -17 -3 -35 -5z"/>
<path d="M1295 339 c-4 -6 -5 -12 -2 -15 2 -3 7 2 10 11 7 17 1 20 -8 4z"/>
<path d="M1378 343 c7 -3 16 -2 19 1 4 3 -2 6 -13 5 -11 0 -14 -3 -6 -6z"/>
<path d="M1505 342 c-15 -11 -17 -32 -2 -26 8 3 14 11 14 19 0 8 -1 15 -1 15
-1 0 -5 -4 -11 -8z"/>
<path d="M3016 319 c3 -5 0 -9 -7 -9 -7 0 -10 -3 -7 -6 4 -3 15 -1 26 5 17 9
21 8 25 -7 4 -13 5 -13 6 4 1 17 -5 22 -24 22 -13 0 -22 -4 -19 -9z"/>
<path d="M3120 320 c-9 -6 -10 -10 -3 -10 6 0 15 5 18 10 8 12 4 12 -15 0z"/>
<path d="M2966 307 c3 -10 9 -15 12 -12 3 3 0 11 -7 18 -10 9 -11 8 -5 -6z"/>
<path d="M3690 309 c0 -7 -10 -9 -25 -7 -14 3 -25 1 -25 -5 0 -7 -4 -7 -12 1
-7 7 -17 12 -22 12 -6 0 -3 -7 8 -15 10 -7 15 -19 11 -25 -4 -7 5 -4 19 6 25
16 28 16 44 1 10 -11 12 -17 4 -17 -7 0 -12 5 -12 11 0 5 -5 7 -11 4 -16 -11
43 -62 65 -57 13 4 17 1 12 -6 -4 -7 -15 -12 -26 -12 -10 0 -20 -7 -24 -15 -3
-9 -16 -20 -28 -25 l-23 -9 25 -1 c16 -1 20 -4 10 -7 -8 -3 -18 -10 -21 -16
-4 -5 -10 0 -14 12 -6 19 -8 20 -31 5 -13 -9 -24 -12 -24 -8 0 5 -4 4 -8 -3
-5 -8 -13 -9 -22 -3 -10 7 -11 10 -2 10 6 0 12 7 12 15 0 8 5 15 10 15 6 0 10
7 10 15 0 8 6 15 14 15 8 0 18 4 21 10 4 7 -3 7 -20 0 -15 -6 -36 -10 -48 -10
-18 0 -19 2 -7 11 12 8 9 9 -9 4 -20 -6 -23 -4 -18 9 4 10 3 15 -3 11 -6 -3
-10 -17 -10 -30 0 -13 -6 -25 -12 -28 -8 -3 -1 -9 15 -16 15 -6 27 -18 27 -26
0 -9 -4 -13 -10 -10 -5 3 -10 0 -10 -8 0 -10 7 -13 20 -10 11 3 20 0 20 -6 0
-6 -6 -11 -14 -11 -8 0 -31 -9 -50 -21 -30 -17 -36 -18 -36 -6 0 9 6 18 13 21
6 3 3 5 -8 5 -35 -2 -45 1 -45 12 0 7 15 9 43 5 23 -3 34 -3 25 0 -25 7 -23
34 1 27 10 -3 22 0 25 6 11 17 -43 13 -60 -4 -17 -17 -39 -21 -29 -5 11 18 -7
10 -26 -12 -11 -11 -19 -16 -19 -10 0 7 -7 12 -16 12 -8 0 -12 4 -9 10 3 6 2
10 -4 10 -6 0 -8 7 -4 16 5 13 3 15 -13 6 -12 -6 -26 -7 -36 -1 -10 6 -19 6
-22 0 -4 -5 8 -12 25 -16 50 -11 89 -65 48 -65 -6 0 -19 -10 -30 -22 -15 -19
-18 -20 -19 -6 0 18 -37 44 -47 34 -3 -3 0 -12 7 -21 7 -8 10 -22 6 -31 -5
-12 -1 -14 17 -8 35 11 77 34 77 43 0 10 66 8 76 -2 4 -4 -5 -7 -19 -7 -15 0
-27 -4 -27 -10 0 -5 6 -7 13 -4 8 3 20 -2 27 -10 7 -9 17 -13 22 -10 6 4 15 0
20 -7 8 -11 9 -10 4 4 -3 9 -1 17 4 17 6 0 10 -5 10 -10 0 -6 24 -9 60 -8 38
2 61 -1 64 -9 3 -6 26 -11 58 -11 29 1 45 3 36 5 -9 2 -15 10 -12 18 3 7 -8
27 -25 43 l-31 30 24 4 c14 3 31 1 38 -4 10 -7 9 -8 -4 -4 -10 3 -20 1 -23 -4
-9 -15 13 -22 34 -10 21 11 54 3 45 -11 -3 -5 -16 -6 -30 -3 -18 5 -24 2 -24
-10 0 -9 5 -16 12 -16 6 0 9 -3 5 -6 -3 -4 -1 -12 6 -18 15 -15 124 -19 132
-6 3 6 13 10 21 10 8 0 12 -4 9 -10 -4 -6 9 -10 32 -9 21 0 32 3 26 6 -7 2
-13 9 -13 15 0 6 8 4 18 -5 19 -17 52 -23 52 -9 0 4 -6 24 -13 44 -11 30 -16
35 -26 25 -9 -9 -14 -9 -21 3 -5 8 -10 20 -10 25 0 6 4 4 9 -4 6 -9 10 -10 16
-2 7 12 -10 39 -32 54 -7 4 -13 19 -13 32 0 14 -5 25 -11 25 -6 0 -8 -7 -5
-16 4 -12 1 -14 -13 -9 -13 4 -23 0 -29 -11 -8 -15 -11 -12 -17 15 -7 32 -7
32 -22 11 -8 -11 -12 -28 -9 -37 4 -11 2 -14 -9 -10 -8 4 -17 2 -20 -3 -3 -4
1 -11 7 -13 13 -5 -25 -11 -49 -8 -7 1 -13 -3 -13 -9 0 -6 -5 -8 -10 -5 -8 5
-8 11 -1 19 6 7 7 23 4 35 -5 21 -3 23 20 19 15 -3 24 -1 21 4 -3 5 1 17 10
27 16 17 16 19 0 25 -9 3 -23 1 -31 -5 -10 -9 -17 -9 -24 -2 -14 14 6 26 42
25 19 0 29 4 29 14 0 17 -1 17 -34 4 -17 -6 -26 -6 -26 0 0 6 -8 10 -17 10
-14 0 -15 2 -4 9 9 6 10 11 2 15 -6 4 -11 2 -11 -5z m-144 -133 c21 -22 17
-27 -11 -14 -13 6 -22 15 -19 19 7 12 13 11 30 -5z m294 -30 c0 -3 -4 -8 -10
-11 -5 -3 -10 -1 -10 4 0 6 5 11 10 11 6 0 10 -2 10 -4z m-205 -26 c3 -5 -3
-10 -14 -10 -12 0 -21 5 -21 10 0 6 6 10 14 10 8 0 18 -4 21 -10z m252 -6 c3
-8 1 -20 -5 -26 -8 -8 -9 -15 -1 -25 8 -9 8 -13 0 -13 -6 0 -11 5 -11 11 0 5
-4 7 -10 4 -5 -3 -10 -2 -10 2 0 5 -15 9 -34 10 -25 0 -33 -3 -29 -13 3 -8 -1
-14 -8 -14 -8 0 -14 11 -14 25 0 17 4 24 14 20 9 -4 11 0 7 11 -4 10 -2 14 6
11 7 -2 12 -11 10 -21 -2 -12 4 -9 22 9 29 28 54 32 63 9z m-289 -32 c-16 -2
-28 -8 -28 -14 0 -6 9 -8 19 -5 11 3 22 -1 25 -8 7 -19 -37 -28 -47 -9 -6 11
-18 13 -45 8 -20 -4 -34 -4 -31 0 14 14 105 42 119 37 10 -4 5 -7 -12 -9z m73
-39 c13 -16 12 -17 -3 -4 -10 7 -18 15 -18 17 0 8 8 3 21 -13z m179 1 c0 -2
-9 -4 -20 -4 -11 0 -20 4 -20 9 0 5 9 7 20 4 11 -3 20 -7 20 -9z m-10 -24 c0
-5 -7 -7 -15 -4 -8 4 -15 8 -15 10 0 2 7 4 15 4 8 0 15 -4 15 -10z"/>
<path d="M3854 105 c3 -22 13 -27 19 -11 3 8 0 17 -8 19 -7 3 -12 0 -11 -8z"/>
<path d="M3735 310 c-3 -5 -1 -10 4 -10 6 0 11 5 11 10 0 6 -2 10 -4 10 -3 0
-8 -4 -11 -10z"/>
<path d="M1054 294 c-18 -14 -18 -14 6 -3 31 14 36 19 24 19 -6 0 -19 -7 -30
-16z"/>
<path d="M1512 298 c-20 -20 -14 -28 13 -16 13 6 22 15 19 19 -7 12 -18 11
-32 -3z"/>
<path d="M1617 304 c-4 -4 -7 -14 -7 -23 0 -11 3 -12 11 -4 6 6 10 16 7 23 -2
6 -7 8 -11 4z"/>
<path d="M2840 295 c0 -9 6 -12 15 -9 8 4 15 10 15 15 0 5 -7 9 -15 9 -8 0
-15 -7 -15 -15z"/>
<path d="M3078 303 c7 -3 16 -2 19 1 4 3 -2 6 -13 5 -11 0 -14 -3 -6 -6z"/>
<path d="M3280 302 c0 -4 9 -8 20 -9 11 -1 20 2 20 8 0 5 -9 9 -20 9 -11 0
-20 -4 -20 -8z"/>
<path d="M3570 299 c0 -5 5 -7 10 -4 6 3 10 8 10 11 0 2 -4 4 -10 4 -5 0 -10
-5 -10 -11z"/>
<path d="M701 286 c-7 -8 -8 -17 -3 -20 6 -3 12 3 15 14 6 24 4 25 -12 6z"/>
<path d="M1200 289 c0 -5 5 -7 10 -4 6 3 10 8 10 11 0 2 -4 4 -10 4 -5 0 -10
-5 -10 -11z"/>
<path d="M1406 281 c-18 -20 -18 -20 13 -16 22 2 34 -1 38 -11 3 -7 9 -11 14
-8 5 3 2 12 -6 20 -8 9 -19 13 -24 10 -5 -4 -11 1 -13 10 -3 14 -6 13 -22 -5z"/>
<path d="M3215 293 c11 -3 25 -9 31 -14 7 -5 11 -3 11 6 0 10 -10 15 -31 14
-21 -1 -25 -3 -11 -6z"/>
<path d="M3449 280 c-13 -10 -19 -19 -13 -20 6 0 21 9 34 20 30 26 10 26 -21
0z"/>
<path d="M1554 277 c-4 -7 -4 -9 1 -5 4 4 14 3 22 -3 8 -7 13 -8 13 -1 0 15
-28 23 -36 9z"/>
<path d="M1176 272 c-3 -5 1 -9 9 -9 8 0 12 4 9 9 -3 4 -7 8 -9 8 -2 0 -6 -4
-9 -8z"/>
<path d="M1266 265 c-16 -12 -17 -18 -8 -27 9 -9 12 -8 12 5 0 9 8 21 18 26 9
6 13 10 7 10 -5 0 -19 -6 -29 -14z"/>
<path d="M1326 267 c-16 -12 -16 -14 -3 -14 9 0 18 6 21 14 7 16 4 16 -18 0z"/>
<path d="M3120 270 c0 -5 4 -10 9 -10 6 0 13 5 16 10 3 6 -1 10 -9 10 -9 0
-16 -4 -16 -10z"/>
<path d="M3480 270 c0 -5 5 -10 11 -10 5 0 7 5 4 10 -3 6 -8 10 -11 10 -2 0
-4 -4 -4 -10z"/>
<path d="M3560 266 c0 -12 32 -35 48 -36 6 0 12 5 12 11 0 6 -6 9 -14 6 -21
-8 -28 4 -11 17 13 9 11 11 -10 11 -14 0 -25 -4 -25 -9z"/>
<path d="M3030 260 c11 -7 7 -10 -19 -10 -28 0 -31 -2 -22 -14 9 -11 9 -15 -1
-19 -7 -2 -1 -4 14 -3 14 0 24 4 21 9 -2 4 2 8 9 8 7 1 19 2 27 3 24 2 23 23
-1 30 -34 9 -45 7 -28 -4z"/>
<path d="M3370 255 c7 -8 21 -15 32 -15 15 0 18 -5 14 -16 -5 -14 -4 -15 8 -4
13 10 19 9 33 -6 13 -12 14 -19 5 -22 -17 -5 -15 -22 3 -22 8 0 14 3 13 8 0 4
2 15 6 25 13 28 0 46 -28 41 -14 -2 -28 1 -31 6 -4 6 -15 8 -26 5 -11 -4 -19
-2 -19 4 0 6 -5 11 -11 11 -8 0 -8 -5 1 -15z"/>
<path d="M3813 256 c-9 -11 -7 -14 11 -12 14 0 22 6 19 14 -6 15 -15 15 -30
-2z"/>
<path d="M1520 250 c0 -5 7 -10 16 -10 8 0 12 5 9 10 -3 6 -10 10 -16 10 -5 0
-9 -4 -9 -10z"/>
<path d="M2713 245 c10 -9 15 -20 12 -25 -3 -5 -1 -11 5 -15 21 -13 8 -20 -32
-18 -24 1 -34 -1 -23 -4 11 -3 28 -15 39 -27 18 -21 18 -21 12 0 -4 15 -2 21
9 21 8 0 15 -4 15 -9 0 -4 5 -8 11 -8 8 0 7 5 -2 16 -11 13 -11 15 2 14 33 -5
57 1 63 15 4 12 0 14 -21 9 -21 -6 -24 -4 -18 7 8 12 6 12 -8 0 -13 -11 -20
-11 -32 -1 -8 6 -13 17 -12 23 1 6 -7 13 -17 15 -18 4 -19 3 -3 -13z"/>
<path d="M3277 254 c-5 -5 -30 -12 -52 -13 -12 -1 -19 -61 -8 -61 5 0 17 7 27
15 19 15 19 15 1 15 -19 0 -18 1 1 14 12 9 35 13 55 11 19 -3 27 -2 19 2 -8 3
-20 10 -26 14 -6 5 -13 6 -17 3z"/>
<path d="M208 243 c12 -2 30 -2 40 0 9 3 -1 5 -23 4 -22 0 -30 -2 -17 -4z"/>
<path d="M1180 241 c0 -5 -8 -12 -17 -14 -15 -4 -15 -5 -2 -6 9 0 22 6 29 14
9 10 9 15 1 15 -6 0 -11 -4 -11 -9z"/>
<path d="M1385 242 c-5 -4 -11 -15 -11 -25 -2 -17 -1 -17 17 -1 28 25 23 47
-6 26z"/>
<path d="M1595 229 c8 -24 -10 -25 -19 -2 -5 11 -10 13 -14 7 -4 -6 -14 -14
-22 -18 -8 -3 -5 -4 8 -2 12 2 22 0 22 -5 0 -5 14 -9 32 -9 24 0 29 3 20 12
-9 9 -8 14 4 22 12 9 10 11 -11 12 -21 2 -25 -2 -20 -17z"/>
<path d="M3123 239 c14 -8 22 -8 30 0 8 8 3 11 -18 11 -26 -1 -28 -2 -12 -11z"/>
<path d="M3630 242 c0 -5 9 -12 21 -15 13 -3 19 -1 16 6 -5 15 -37 22 -37 9z"/>
<path d="M2690 230 c0 -5 5 -10 10 -10 6 0 10 5 10 10 0 6 -4 10 -10 10 -5 0
-10 -4 -10 -10z"/>
<path d="M605 214 c-20 -15 -12 -17 19 -5 11 4 15 10 10 13 -5 4 -18 0 -29 -8z"/>
<path d="M1283 216 c3 -7 1 -18 -5 -24 -6 -6 -7 -16 -2 -24 5 -7 7 -21 5 -31
-2 -18 -2 -18 16 0 18 18 18 18 0 25 -24 10 -17 32 11 36 12 2 22 7 22 12 0 5
-7 7 -15 4 -8 -4 -15 -1 -15 5 0 6 -5 11 -11 11 -6 0 -9 -6 -6 -14z"/>
<path d="M1433 210 c3 -13 0 -20 -9 -20 -16 0 -19 -16 -4 -25 6 -3 10 -2 10 4
0 18 35 5 45 -17 11 -24 25 -29 25 -9 0 6 -14 23 -31 36 -16 13 -28 30 -25 38
3 7 0 13 -5 13 -6 0 -9 -9 -6 -20z"/>
<path d="M2890 224 c0 -3 7 -12 15 -20 16 -17 18 -14 9 10 -6 15 -24 23 -24
10z"/>
<path d="M3840 220 c0 -5 5 -10 10 -10 6 0 10 5 10 10 0 6 -4 10 -10 10 -5 0
-10 -4 -10 -10z"/>
<path d="M717 209 c7 -7 15 -10 18 -7 3 3 -2 9 -12 12 -14 6 -15 5 -6 -5z"/>
<path d="M780 210 c0 -5 7 -7 15 -4 8 4 15 8 15 10 0 2 -7 4 -15 4 -8 0 -15
-4 -15 -10z"/>
<path d="M3050 200 c6 -11 13 -20 15 -20 2 0 3 9 2 20 -1 11 -7 20 -14 20 -11
0 -11 -5 -3 -20z"/>
<path d="M3096 205 c-17 -13 -18 -15 -3 -15 9 0 17 4 17 10 0 5 6 7 14 4 8 -3
17 -1 21 5 9 16 -27 13 -49 -4z"/>
<path d="M876 197 c3 -10 9 -15 12 -12 3 3 0 11 -7 18 -10 9 -11 8 -5 -6z"/>
<path d="M2845 200 c3 -5 8 -10 11 -10 2 0 4 5 4 10 0 6 -5 10 -11 10 -5 0 -7
-4 -4 -10z"/>
<path d="M3351 199 c9 -8 14 -20 11 -27 -3 -11 2 -10 26 2 16 8 33 12 37 8 5
-4 5 -1 1 6 -5 8 -13 9 -24 3 -10 -6 -24 -4 -41 6 -17 10 -20 10 -10 2z"/>
<path d="M3633 195 c-16 -18 -5 -25 22 -15 13 5 25 8 26 7 2 -1 3 0 1 3 -2 3
-7 5 -10 5 -4 0 -11 3 -17 7 -5 3 -15 0 -22 -7z"/>
<path d="M1515 190 c-3 -6 1 -13 10 -16 14 -6 14 -8 -2 -20 -20 -15 -6 -19 17
-4 22 14 21 50 -1 50 -10 0 -21 -5 -24 -10z"/>
<path d="M2960 191 c0 -5 9 -7 20 -4 11 3 20 7 20 9 0 2 -9 4 -20 4 -11 0 -20
-4 -20 -9z"/>
<path d="M3280 189 c0 -6 -4 -7 -10 -4 -5 3 -10 2 -10 -2 0 -5 16 -9 35 -9 23
0 32 3 25 10 -13 13 -40 16 -40 5z"/>
<path d="M2870 186 c0 -2 7 -9 15 -16 13 -11 14 -10 9 4 -5 14 -24 23 -24 12z"/>
<path d="M3115 180 c-3 -6 1 -7 9 -4 18 7 21 14 7 14 -6 0 -13 -4 -16 -10z"/>
<path d="M515 170 c-3 -5 -1 -10 4 -10 6 0 11 5 11 10 0 6 -2 10 -4 10 -3 0
-8 -4 -11 -10z"/>
<path d="M916 173 c5 -5 12 -12 16 -18 4 -6 8 -2 8 8 0 9 -7 17 -17 17 -9 0
-12 -3 -7 -7z"/>
<path d="M1165 170 c-3 -5 3 -10 14 -10 11 0 23 5 26 10 3 6 -3 10 -14 10 -11
0 -23 -4 -26 -10z"/>
<path d="M1345 170 c3 -5 8 -10 11 -10 2 0 4 5 4 10 0 6 -5 10 -11 10 -5 0 -7
-4 -4 -10z"/>
<path d="M2838 173 c7 -3 16 -2 19 1 4 3 -2 6 -13 5 -11 0 -14 -3 -6 -6z"/>
<path d="M2940 172 c0 -7 -8 -12 -17 -12 -17 -1 -17 -1 0 -11 25 -14 48 4 29
23 -9 9 -12 9 -12 0z"/>
<path d="M3009 138 c-20 -39 -20 -42 -3 -28 10 8 22 19 25 23 3 5 9 8 13 8 23
-3 26 0 16 19 -16 30 -27 25 -51 -22z m41 22 c0 -5 -2 -10 -4 -10 -3 0 -8 5
-11 10 -3 6 -1 10 4 10 6 0 11 -4 11 -10z"/>
<path d="M2970 156 c0 -2 7 -7 16 -10 8 -3 12 -2 9 4 -6 10 -25 14 -25 6z"/>
<path d="M3134 135 c12 -18 14 -26 5 -19 -19 15 -46 14 -46 -2 0 -7 6 -10 14
-7 7 3 13 0 13 -6 0 -7 -7 -14 -15 -17 -12 -5 -12 -8 0 -20 18 -19 31 -18 15
1 -14 17 0 21 17 4 8 -8 13 -8 18 0 3 6 3 11 -2 10 -19 -3 -27 2 -15 10 7 4
15 20 16 35 2 15 1 24 -2 21 -3 -2 -12 1 -21 8 -12 9 -11 4 3 -18z"/>
<path d="M3174 133 c-1 -13 -1 -23 0 -21 1 2 7 10 14 19 10 13 10 18 0 22 -8
3 -14 -5 -14 -20z"/>
<path d="M1226 141 c-4 -7 -5 -15 -2 -18 9 -9 19 4 14 18 -4 11 -6 11 -12 0z"/>
<path d="M2870 139 c0 -5 5 -7 10 -4 6 3 10 8 10 11 0 2 -4 4 -10 4 -5 0 -10
-5 -10 -11z"/>
<path d="M1340 125 c-7 -8 -20 -15 -29 -15 -13 0 -14 -2 -2 -9 14 -9 46 -3 37
7 -3 3 2 11 12 18 9 7 12 14 6 14 -6 0 -17 -7 -24 -15z"/>
<path d="M3270 125 c0 -8 -5 -15 -11 -15 -5 0 -8 3 -6 8 3 4 -8 7 -24 8 -35 1
-37 -4 -6 -16 22 -9 22 -9 1 -9 -12 -1 -28 -8 -35 -18 -13 -15 -12 -15 8 -5
30 16 37 15 19 -3 -8 -8 -25 -15 -37 -15 -18 0 -20 -3 -11 -12 15 -15 16 -42
0 -32 -6 4 -8 3 -5 -2 8 -14 74 -16 82 -3 5 8 -2 9 -24 4 -20 -4 -31 -3 -31 4
0 6 8 11 18 11 14 0 15 2 2 10 -13 8 -13 10 1 10 9 0 20 11 23 24 7 28 40 40
57 20 8 -10 15 -11 24 -4 6 5 15 7 18 3 4 -3 7 -1 7 6 0 9 -9 12 -25 9 -23 -5
-30 2 -26 25 0 4 -3 7 -9 7 -5 0 -10 -7 -10 -15z"/>
<path d="M500 119 c0 -5 5 -7 10 -4 6 3 10 8 10 11 0 2 -4 4 -10 4 -5 0 -10
-5 -10 -11z"/>
<path d="M1015 120 c3 -5 1 -10 -6 -10 -7 0 -10 -2 -7 -5 8 -9 38 6 32 16 -3
5 -10 9 -15 9 -6 0 -7 -4 -4 -10z"/>
<path d="M640 105 c0 -8 8 -11 20 -8 11 3 20 7 20 8 0 1 -9 5 -20 8 -12 3 -20
0 -20 -8z"/>
<path d="M690 108 c0 -4 9 -8 20 -8 11 0 20 4 20 8 0 4 -9 8 -20 8 -11 0 -20
-4 -20 -8z"/>
<path d="M1161 103 c7 -12 15 -20 18 -17 3 2 -3 12 -13 22 -17 16 -18 16 -5
-5z"/>
<path d="M2920 105 c0 -8 2 -15 4 -15 2 0 6 7 10 15 3 8 1 15 -4 15 -6 0 -10
-7 -10 -15z"/>
<path d="M2950 110 c0 -5 6 -10 13 -11 6 0 3 -4 -8 -9 -17 -7 -17 -9 -2 -9 9
-1 17 -5 17 -10 0 -5 -11 -8 -25 -6 -14 1 -25 -2 -25 -6 0 -14 58 -10 63 4 4
8 6 7 7 -3 2 -31 37 -60 72 -59 21 1 26 3 13 6 -11 3 -28 14 -38 24 -16 17
-16 19 -2 19 9 0 13 5 9 11 -4 7 0 9 13 5 14 -4 19 -1 19 13 0 16 -3 18 -15 8
-8 -7 -17 -11 -20 -11 -3 1 -12 -1 -19 -4 -8 -3 -25 7 -38 22 -27 28 -34 32
-34 16z"/>
<path d="M750 99 c0 -5 5 -7 10 -4 6 3 10 8 10 11 0 2 -4 4 -10 4 -5 0 -10 -5
-10 -11z"/>
<path d="M1096 96 c8 -20 35 -29 48 -16 8 8 6 9 -5 5 -10 -4 -19 0 -22 9 -4 9
-11 16 -16 16 -6 0 -8 -6 -5 -14z"/>
<path d="M1360 100 c0 -5 5 -10 10 -10 6 0 10 5 10 10 0 6 -4 10 -10 10 -5 0
-10 -4 -10 -10z"/>
<path d="M470 86 c0 -10 -6 -13 -17 -9 -16 6 -16 5 -5 -10 8 -9 11 -21 8 -26
-8 -13 11 -24 25 -15 8 5 8 9 -1 14 -9 6 -9 13 -1 28 7 14 8 23 1 27 -5 3 -10
-1 -10 -9z"/>
<path d="M590 89 c0 -5 5 -7 10 -4 6 3 10 8 10 11 0 2 -4 4 -10 4 -5 0 -10 -5
-10 -11z"/>
<path d="M1426 84 c-6 -15 -4 -15 11 -3 10 7 20 15 22 16 2 2 -3 3 -11 3 -9 0
-19 -7 -22 -16z"/>
<path d="M2815 90 c-3 -5 -1 -10 4 -10 6 0 11 5 11 10 0 6 -2 10 -4 10 -3 0
-8 -4 -11 -10z"/>
<path d="M2833 80 c-9 -14 -10 -21 -2 -26 8 -5 6 -10 -5 -16 -31 -17 -18 -37
23 -36 29 0 38 4 34 14 -3 8 1 14 11 14 31 0 17 29 -16 32 -25 2 -32 7 -30 21
4 22 0 22 -15 -3z m22 -60 c-3 -5 -13 -10 -21 -10 -8 0 -12 5 -9 10 3 6 13 10
21 10 8 0 12 -4 9 -10z"/>
<path d="M170 80 c0 -5 5 -10 10 -10 6 0 10 5 10 10 0 6 -4 10 -10 10 -5 0
-10 -4 -10 -10z"/>
<path d="M966 74 c-5 -14 -4 -15 9 -4 17 14 19 20 6 20 -5 0 -12 -7 -15 -16z"/>
<path d="M1223 82 c-10 -6 -10 -12 2 -28 11 -14 14 -15 9 -3 -6 19 11 35 21
19 3 -5 11 -10 18 -10 6 0 2 7 -9 15 -22 17 -25 17 -41 7z"/>
<path d="M1313 62 c12 -13 14 -21 6 -29 -7 -7 -2 -9 17 -5 19 3 25 1 20 -7 -4
-6 -15 -11 -24 -12 -11 0 -13 -2 -4 -6 17 -6 52 25 52 46 0 12 -2 13 -8 3 -11
-17 -45 -4 -38 14 4 9 -2 14 -16 14 -20 0 -20 -1 -5 -18z"/>
<path d="M1494 66 c-3 -8 -4 -23 -1 -33 4 -14 5 -13 6 5 0 12 5 22 11 22 5 0
8 -6 6 -12 -1 -7 -1 -10 1 -5 3 4 9 4 15 1 5 -3 4 3 -4 15 -15 25 -26 27 -34
7z"/>
<path d="M1395 60 c-3 -5 -1 -10 4 -10 6 0 11 5 11 10 0 6 -2 10 -4 10 -3 0
-8 -4 -11 -10z"/>
<path d="M644 30 c0 -16 3 -27 8 -24 5 3 5 10 2 16 -4 6 -1 14 6 18 9 5 8 9
-2 13 -10 3 -14 -3 -14 -23z"/>
<path d="M765 50 c4 -6 11 -8 16 -5 14 9 11 15 -7 15 -8 0 -12 -5 -9 -10z"/>
<path d="M1065 53 c-39 -10 -62 -43 -29 -43 10 0 14 6 10 15 -4 10 1 15 17 16
12 0 31 4 42 9 l20 9 -20 -1 c-11 0 -29 -3 -40 -5z"/>
<path d="M1830 51 c0 -5 5 -13 10 -16 6 -3 10 -2 10 4 0 5 -4 13 -10 16 -5 3
-10 2 -10 -4z"/>
<path d="M568 39 c-20 -11 -25 -39 -7 -39 5 0 7 5 4 11 -4 6 1 17 11 24 22 17
17 19 -8 4z"/>
<path d="M1450 39 c0 -5 5 -7 10 -4 6 3 10 8 10 11 0 2 -4 4 -10 4 -5 0 -10
-5 -10 -11z"/>
<path d="M1996 25 c-9 -14 -12 -25 -6 -25 5 0 10 5 10 10 0 6 7 10 15 10 16 0
20 16 6 24 -5 3 -16 -5 -25 -19z"/>
<path d="M2713 38 c-18 -30 -11 -37 38 -36 39 1 49 5 44 16 -3 7 -5 16 -5 18
0 10 -39 3 -42 -8 -3 -7 -10 -8 -17 -4 -11 7 -11 10 0 17 10 6 10 9 2 9 -6 0
-15 -6 -20 -12z"/>
<path d="M3060 40 c0 -13 28 -25 38 -16 3 4 0 11 -8 16 -20 13 -30 12 -30 0z"/>
<path d="M3120 40 c-20 -12 -5 -24 16 -12 9 5 12 12 7 15 -5 3 -15 2 -23 -3z"/>
<path d="M1104 26 c-8 -22 -2 -27 16 -16 12 7 12 12 3 21 -10 10 -14 9 -19 -5z"/>
<path d="M1585 30 c-3 -5 -4 -10 -1 -10 2 0 12 -3 20 -6 12 -5 15 -2 10 10 -7
18 -20 21 -29 6z"/>
<path d="M2955 29 c-4 -6 -17 -14 -29 -19 -18 -8 -16 -9 13 -9 25 -1 32 3 28
13 -3 8 -1 17 6 20 9 3 9 5 0 5 -6 1 -15 -4 -18 -10z"/>
<path d="M320 20 c0 -5 7 -7 15 -4 8 4 15 8 15 10 0 2 -7 4 -15 4 -8 0 -15 -4
-15 -10z"/>
<path d="M615 19 c-4 -6 -5 -12 -2 -15 2 -3 7 2 10 11 7 17 1 20 -8 4z"/>
<path d="M1280 21 c0 -5 -8 -12 -17 -14 -15 -4 -15 -5 -2 -6 9 0 22 6 29 14 9
10 9 15 1 15 -6 0 -11 -4 -11 -9z"/>
<path d="M1525 15 c-19 -15 -19 -15 7 -12 15 2 31 7 35 12 4 4 3 5 -4 2 -6 -4
-13 -2 -15 3 -2 7 -11 5 -23 -5z"/>
<path d="M1725 14 c-29 -13 -29 -13 -5 -13 28 -1 57 14 44 21 -5 3 -22 -1 -39
-8z"/>
<path d="M1890 15 c0 -8 4 -15 10 -15 5 0 7 7 4 15 -4 8 -8 15 -10 15 -2 0 -4
-7 -4 -15z"/>
<path d="M480 10 c0 -5 5 -10 10 -10 6 0 10 5 10 10 0 6 -4 10 -10 10 -5 0
-10 -4 -10 -10z"/>
<path d="M975 10 c-8 -13 5 -13 25 0 13 8 13 10 -2 10 -9 0 -20 -4 -23 -10z"/>
<path d="M1430 10 c0 -13 27 -13 35 0 3 6 -3 10 -14 10 -12 0 -21 -4 -21 -10z"/>
<path d="M1780 10 c0 -5 7 -10 15 -10 8 0 15 5 15 10 0 6 -7 10 -15 10 -8 0
-15 -4 -15 -10z"/>
<path d="M2980 10 c0 -5 5 -10 10 -10 6 0 10 5 10 10 0 6 -4 10 -10 10 -5 0
-10 -4 -10 -10z"/>
<path d="M3315 10 c-3 -5 -1 -10 4 -10 6 0 11 5 11 10 0 6 -2 10 -4 10 -3 0
-8 -4 -11 -10z"/>
<path d="M3370 12 c0 -4 10 -9 22 -9 18 -2 20 0 8 7 -18 12 -30 13 -30 2z"/>
</g>
</svg>
