<svg version="1.1" id="logo" xmlns="http://www.w3.org/2000/svg" xmlns:xlink="http://www.w3.org/1999/xlink" x="0px" y="0px"
		 width="215.4px" height="99.9px" viewBox="0 0 359 166.5" enable-background="new 0 0 359 166.5" xml:space="preserve">
	<g>
		<path fill="#D85D19" d="M91.899,10.695l7.5,42.3h0.2l7.5-42.3h26.6v71.4h-17.4v-53.2h-0.2l-9.9,53.2H92.8l-9.9-53.2h-0.2v53.2H65.3
			v-71.4H91.899z"/>
		<path fill="#D85D19" d="M178.899,10.695l17.4,71.4h-19.8l-1.9-12.5h-14.8l-1.9,12.5h-19.5l17.1-71.4H178.899z M167.1,25.295
			l-5.1,30.3h10.4l-5.1-30.3H167.1z"/>
		<path fill="#D85D19" d="M217.799,10.695l5.9,20.7h0.2l5.9-20.7h20.8l-15.5,35.2l16.699,36.2H231l-7.1-21.5h-0.2l-7.1,21.5h-20.5
			l16.6-36.2l-15.7-35.2H217.799z"/>
	</g>
	<g>
		<path fill="#CE8017" d="M77.85,90c-0.4-0.733-1.05-1.1-1.95-1.1c-0.7,0-1.258,0.184-1.675,0.55c-0.417,0.367-0.734,1.017-0.95,1.95
			c-0.217,0.934-0.358,2.192-0.425,3.775c-0.067,1.584-0.1,3.575-0.1,5.975s0.033,4.392,0.1,5.975
			c0.066,1.583,0.208,2.842,0.425,3.775c0.216,0.934,0.533,1.583,0.95,1.95c0.417,0.367,0.975,0.55,1.675,0.55
			c0.566,0,1.033-0.141,1.4-0.425c0.367-0.283,0.65-0.758,0.85-1.425c0.2-0.666,0.341-1.558,0.425-2.675
			c0.083-1.116,0.125-2.525,0.125-4.225h9v2.65c0,2.5-0.334,4.55-1,6.15c-0.667,1.6-1.55,2.858-2.65,3.775
			c-1.1,0.917-2.358,1.534-3.775,1.85c-1.417,0.316-2.875,0.475-4.375,0.475c-2.6,0-4.733-0.317-6.4-0.95
			c-1.667-0.633-2.967-1.691-3.9-3.175c-0.934-1.482-1.575-3.4-1.925-5.75c-0.35-2.35-0.525-5.191-0.525-8.525
			c0-3.4,0.208-6.283,0.625-8.65c0.417-2.366,1.125-4.283,2.125-5.75c1-1.466,2.316-2.525,3.95-3.175
			c1.633-0.65,3.65-0.975,6.05-0.975c2.1,0,3.883,0.267,5.35,0.8c1.466,0.534,2.658,1.292,3.575,2.275
			c0.916,0.984,1.583,2.167,2,3.55c0.416,1.383,0.625,2.942,0.625,4.675v2.25h-9v-2C78.45,92.117,78.25,90.733,77.85,90z"/>
		<path fill="#CE8017" d="M101.35,83.3v13.1h5.7V83.3h9.3V119h-9.3v-14.7h-5.7V119h-9.3V83.3H101.35z"/>
		<path fill="#CE8017" d="M139.299,83.3l8.7,35.7h-9.9l-0.95-6.25h-7.4l-0.95,6.25h-9.75l8.55-35.7H139.299z M133.399,90.6
			l-2.55,15.15h5.2l-2.55-15.15H133.399z"/>
		<path fill="#CE8017" d="M164.049,83.3c2.7,0,4.8,0.492,6.3,1.475c1.5,0.984,2.625,2.3,3.375,3.95s1.208,3.55,1.375,5.7
			c0.167,2.15,0.25,4.393,0.25,6.725c0,2.333-0.083,4.575-0.25,6.725c-0.167,2.15-0.625,4.05-1.375,5.7
			c-0.75,1.65-1.875,2.967-3.375,3.95c-1.5,0.984-3.6,1.475-6.3,1.475h-13.5V83.3H164.049z M161.699,112.3
			c0.9,0,1.616-0.125,2.15-0.375c0.533-0.25,0.941-0.775,1.225-1.575c0.283-0.8,0.466-1.933,0.55-3.4
			c0.083-1.467,0.125-3.4,0.125-5.8s-0.042-4.333-0.125-5.8c-0.083-1.466-0.267-2.6-0.55-3.4c-0.284-0.8-0.692-1.325-1.225-1.575
			c-0.534-0.25-1.25-0.375-2.15-0.375h-1.85v22.3H161.699z"/>
		<path fill="#CE8017" d="M201.199,83.3l3.65,24.7h0.1l2.5-24.7h9l-6.1,35.7h-10.2l-3.1-24h-0.1l-3.1,24h-10.2l-6.1-35.7h9l2.8,24.7
			h0.1l3.35-24.7H201.199z"/>
		<path fill="#CE8017" d="M228.599,83.3V119h-9.3V83.3H228.599z"/>
		<path fill="#CE8017" d="M247.298,90c-0.4-0.733-1.05-1.1-1.95-1.1c-0.7,0-1.258,0.184-1.675,0.55
			c-0.417,0.367-0.734,1.017-0.95,1.95c-0.217,0.934-0.358,2.192-0.425,3.775c-0.067,1.584-0.1,3.575-0.1,5.975
			s0.033,4.392,0.1,5.975c0.066,1.583,0.208,2.842,0.425,3.775c0.216,0.934,0.533,1.583,0.95,1.95c0.417,0.367,0.975,0.55,1.675,0.55
			c0.566,0,1.033-0.141,1.4-0.425c0.367-0.283,0.65-0.758,0.85-1.425c0.2-0.666,0.341-1.558,0.425-2.675
			c0.083-1.116,0.125-2.525,0.125-4.225h9v2.65c0,2.5-0.334,4.55-1,6.15c-0.667,1.6-1.55,2.858-2.65,3.775
			c-1.1,0.917-2.358,1.534-3.775,1.85c-1.417,0.316-2.875,0.475-4.375,0.475c-2.6,0-4.733-0.317-6.4-0.95
			c-1.667-0.633-2.967-1.691-3.9-3.175c-0.934-1.482-1.575-3.4-1.925-5.75c-0.35-2.35-0.525-5.191-0.525-8.525
			c0-3.4,0.208-6.283,0.625-8.65c0.417-2.366,1.125-4.283,2.125-5.75c1-1.466,2.316-2.525,3.95-3.175
			c1.633-0.65,3.65-0.975,6.05-0.975c2.1,0,3.883,0.267,5.35,0.8c1.466,0.534,2.658,1.292,3.575,2.275
			c0.916,0.984,1.583,2.167,2,3.55c0.416,1.383,0.625,2.942,0.625,4.675v2.25h-9v-2C247.898,92.117,247.698,90.733,247.298,90z"/>
		<path fill="#CE8017" d="M270.447,83.3V97h0.101l6.899-13.7h9.9l-9,15.6l10.1,20.1h-10.6l-5.449-12.45l-1.951,3V119h-9.299V83.3
			H270.447z"/>
	</g>
	<rect x="10" y="10" fill="#C6AF91" width="40" height="109" id="indicator" />
	<g>
		<path fill="#8E643F" d="M68.277,157l-3.932-15.499h2.116l1.84,7.841c0.459,1.932,0.874,3.863,1.149,5.358h0.046
			c0.253-1.541,0.736-3.38,1.265-5.381l2.069-7.818h2.093l1.885,7.864c0.437,1.839,0.851,3.679,1.081,5.312h0.046
			c0.322-1.702,0.759-3.426,1.242-5.358l2.046-7.818h2.047L78.878,157h-2.093l-1.955-8.071c-0.483-1.978-0.805-3.495-1.012-5.059
			h-0.046c-0.276,1.541-0.621,3.059-1.196,5.059L70.37,157H68.277z"/>
		<path fill="#8E643F" d="M93.231,149.733h-6.025v5.588h6.715V157h-8.715v-15.499h8.37v1.679h-6.37v4.898h6.025V149.733z"/>
		<path fill="#8E643F" d="M96.521,141.708c0.874-0.184,2.253-0.322,3.656-0.322c2,0,3.288,0.345,4.254,1.127
			c0.805,0.598,1.288,1.518,1.288,2.736c0,1.495-0.989,2.806-2.622,3.403v0.046c1.472,0.368,3.196,1.587,3.196,3.886
			c0,1.333-0.529,2.346-1.311,3.104c-1.081,0.989-2.829,1.449-5.358,1.449c-1.38,0-2.438-0.092-3.104-0.184V141.708z M98.521,148.055
			h1.817c2.115,0,3.357-1.104,3.357-2.599c0-1.816-1.379-2.529-3.403-2.529c-0.919,0-1.448,0.069-1.771,0.138V148.055z
			 M98.521,155.482c0.391,0.069,0.966,0.092,1.679,0.092c2.07,0,3.978-0.759,3.978-3.012c0-2.116-1.816-2.989-4.001-2.989h-1.656
			V155.482z"/>
		<path fill="#8E643F" d="M113.863,141.708c1.219-0.184,2.667-0.322,4.254-0.322c2.875,0,4.921,0.667,6.278,1.932
			c1.38,1.265,2.185,3.059,2.185,5.565c0,2.529-0.782,4.599-2.23,6.024c-1.449,1.449-3.84,2.231-6.853,2.231
			c-1.426,0-2.622-0.069-3.633-0.184V141.708z M115.863,155.414c0.506,0.092,1.242,0.115,2.024,0.115
			c4.277,0,6.599-2.392,6.599-6.577c0.023-3.656-2.046-5.979-6.277-5.979c-1.035,0-1.817,0.092-2.346,0.207V155.414z"/>
		<path fill="#8E643F" d="M137.206,149.733h-6.025v5.588h6.715V157h-8.715v-15.499h8.37v1.679h-6.37v4.898h6.025V149.733z"/>
		<path fill="#8E643F" d="M140.22,154.562c0.897,0.552,2.208,1.012,3.587,1.012c2.046,0,3.242-1.081,3.242-2.645
			c0-1.448-0.828-2.276-2.92-3.081c-2.529-0.897-4.093-2.208-4.093-4.392c0-2.415,2-4.208,5.013-4.208
			c1.586,0,2.736,0.368,3.426,0.759l-0.552,1.633c-0.506-0.276-1.541-0.736-2.943-0.736c-2.115,0-2.92,1.265-2.92,2.322
			c0,1.449,0.943,2.162,3.082,2.989c2.622,1.012,3.955,2.276,3.955,4.553c0,2.391-1.771,4.461-5.427,4.461
			c-1.495,0-3.127-0.437-3.955-0.989L140.22,154.562z"/>
		<path fill="#8E643F" d="M153.835,141.501V157h-2v-15.499H153.835z"/>
		<path fill="#8E643F" d="M169.128,156.31c-0.896,0.322-2.667,0.851-4.76,0.851c-2.346,0-4.277-0.598-5.795-2.047
			c-1.333-1.288-2.162-3.357-2.162-5.771c0.023-4.622,3.196-8.002,8.394-8.002c1.793,0,3.196,0.391,3.863,0.713l-0.483,1.633
			c-0.828-0.368-1.862-0.667-3.426-0.667c-3.771,0-6.231,2.346-6.231,6.231c0,3.932,2.369,6.255,5.979,6.255
			c1.311,0,2.208-0.184,2.667-0.414v-4.622h-3.15v-1.609h5.105V156.31z"/>
		<path fill="#8E643F" d="M172.19,157v-15.499h2.185l4.967,7.841c1.15,1.816,2.047,3.449,2.783,5.036l0.046-0.023
			c-0.184-2.069-0.23-3.955-0.23-6.37v-6.484h1.886V157h-2.024l-4.921-7.864c-1.081-1.725-2.115-3.495-2.897-5.174l-0.069,0.023
			c0.115,1.955,0.161,3.817,0.161,6.393V157H172.19z"/>
		<path fill="#8E643F" d="M201.904,157c-0.437-0.437-0.851-0.874-1.449-1.518c-1.334,1.242-2.829,1.771-4.53,1.771
			c-3.012,0-4.76-2.023-4.76-4.346c0-2.115,1.265-3.564,3.035-4.53v-0.069c-0.805-1.012-1.288-2.139-1.288-3.243
			c0-1.885,1.357-3.817,3.932-3.817c1.932,0,3.426,1.288,3.426,3.288c0,1.633-0.943,2.92-3.403,4.139v0.069
			c1.311,1.518,2.783,3.219,3.771,4.323c0.712-1.081,1.195-2.576,1.495-4.53h1.839c-0.414,2.437-1.081,4.369-2.23,5.726
			c0.828,0.874,1.633,1.748,2.552,2.736H201.904z M199.466,154.333c-0.92-1.012-2.645-2.897-4.369-4.875c-0.828,0.529-2,1.518-2,3.15
			c0,1.771,1.311,3.127,3.173,3.127C197.604,155.735,198.73,155.137,199.466,154.333z M194.752,144.882
			c0,1.104,0.506,1.955,1.172,2.782c1.564-0.897,2.576-1.725,2.576-3.035c0-0.943-0.529-2.001-1.793-2.001
			C195.419,142.628,194.752,143.686,194.752,144.882z"/>
		<path fill="#8E643F" d="M210.99,141.708c1.219-0.184,2.667-0.322,4.254-0.322c2.875,0,4.921,0.667,6.278,1.932
			c1.38,1.265,2.185,3.059,2.185,5.565c0,2.529-0.782,4.599-2.23,6.024c-1.449,1.449-3.84,2.231-6.853,2.231
			c-1.426,0-2.622-0.069-3.633-0.184V141.708z M212.991,155.414c0.506,0.092,1.242,0.115,2.024,0.115
			c4.277,0,6.599-2.392,6.599-6.577c0.023-3.656-2.046-5.979-6.277-5.979c-1.035,0-1.817,0.092-2.346,0.207V155.414z"/>
		<path fill="#8E643F" d="M234.333,149.733h-6.025v5.588h6.715V157h-8.715v-15.499h8.37v1.679h-6.37v4.898h6.025V149.733z"/>
		<path fill="#8E643F" d="M241.233,157l-5.059-15.499h2.162l2.415,7.634c0.667,2.092,1.242,3.978,1.656,5.795h0.046
			c0.437-1.794,1.081-3.749,1.771-5.772l2.622-7.657h2.139L243.441,157H241.233z"/>
		<path fill="#8E643F" d="M258.689,149.733h-6.025v5.588h6.715V157h-8.715v-15.499h8.37v1.679h-6.37v4.898h6.025V149.733z"/>
		<path fill="#8E643F" d="M261.98,141.501h2v13.82h6.623V157h-8.624V141.501z"/>
		<path fill="#8E643F" d="M285.184,149.09c0,5.335-3.242,8.163-7.197,8.163c-4.093,0-6.967-3.173-6.967-7.864
			c0-4.921,3.059-8.14,7.197-8.14C282.447,141.249,285.184,144.491,285.184,149.09z M273.158,149.343
			c0,3.311,1.793,6.277,4.943,6.277c3.174,0,4.967-2.92,4.967-6.438c0-3.081-1.609-6.301-4.943-6.301
			C274.813,142.881,273.158,145.939,273.158,149.343z"/>
		<path fill="#8E643F" d="M287.785,141.686c0.967-0.161,2.23-0.299,3.841-0.299c1.978,0,3.427,0.46,4.346,1.288
			c0.851,0.736,1.356,1.862,1.356,3.242c0,1.403-0.414,2.506-1.195,3.311c-1.058,1.127-2.782,1.702-4.736,1.702
			c-0.599,0-1.15-0.023-1.61-0.138V157h-2.001V141.686z M289.786,149.159c0.437,0.115,0.989,0.161,1.655,0.161
			c2.415,0,3.887-1.173,3.887-3.312c0-2.046-1.449-3.035-3.656-3.035c-0.874,0-1.541,0.069-1.886,0.161V149.159z"/>
		<path fill="#8E643F" d="M312.807,150.193c-0.114-2.162-0.252-4.76-0.229-6.691h-0.069c-0.528,1.816-1.172,3.748-1.954,5.887
			l-2.736,7.52H306.3l-2.507-7.381c-0.735-2.185-1.356-4.186-1.793-6.025h-0.047c-0.045,1.932-0.16,4.53-0.299,6.853L301.24,157
			h-1.908l1.081-15.499h2.552l2.645,7.496c0.645,1.909,1.174,3.61,1.564,5.22h0.068c0.391-1.564,0.943-3.266,1.633-5.22l2.76-7.496
			h2.553L315.152,157h-1.954L312.807,150.193z"/>
		<path fill="#8E643F" d="M326.263,149.733h-6.024v5.588h6.715V157h-8.715v-15.499h8.37v1.679h-6.37v4.898h6.024V149.733z"/>
		<path fill="#8E643F" d="M329.554,157v-15.499h2.185l4.967,7.841c1.149,1.816,2.046,3.449,2.782,5.036l0.046-0.023
			c-0.184-2.069-0.23-3.955-0.23-6.37v-6.484h1.886V157h-2.023l-4.921-7.864c-1.081-1.725-2.115-3.495-2.897-5.174l-0.068,0.023
			c0.114,1.955,0.16,3.817,0.16,6.393V157H329.554z"/>
		<path fill="#8E643F" d="M347.631,143.203h-4.715v-1.702h11.475v1.702h-4.736V157h-2.023V143.203z"/>
	</g>
	</svg>